<?xml version="1.0" encoding="utf-8"?>
<!-- Generator: Adobe Illustrator 22.1.0, SVG Export Plug-In . SVG Version: 6.00 Build 0)  -->
<svg version="1.1" xmlns="http://www.w3.org/2000/svg" xmlns:xlink="http://www.w3.org/1999/xlink" x="0px" y="0px"
	 viewBox="0 0 1120 1120" style="enable-background:new 0 0 1120 1120;" xml:space="preserve">
<style type="text/css">
	.st0{display:none;}
	.st1{fill:#407351;}
	.st2{fill:none;stroke:#FF0019;stroke-width:36.0789;stroke-miterlimit:10;}
	.st3{display:inline;}
	.st4{display:inline;fill:none;stroke:#FF0019;stroke-width:30;stroke-miterlimit:10;}
	.st5{display:inline;fill:#FF0019;}
	.st6{display:inline;fill:none;stroke:#FF0019;stroke-width:31.3062;stroke-miterlimit:10;}
	.st7{display:inline;fill:none;stroke:#FF0019;stroke-width:29.7139;stroke-miterlimit:10;}
	.st8{display:inline;fill:#FDFFFE;stroke:#FF0019;stroke-width:29.6858;stroke-miterlimit:10;}
	.st9{display:inline;fill:none;stroke:#FF0019;stroke-width:33;stroke-miterlimit:10;}
	.st10{display:inline;fill:none;stroke:#FF0019;stroke-width:32.5965;stroke-miterlimit:10;}
	.st11{display:inline;fill:#FDFFFE;stroke:#FF0019;stroke-width:30.6284;stroke-miterlimit:10;}
	.st12{display:inline;fill:#FDFFFE;stroke:#FF0019;stroke-width:21.1932;stroke-miterlimit:10;}
	.st13{display:inline;fill:#FFFFFF;stroke:#FF0019;stroke-width:38;stroke-miterlimit:10;}
	.st14{fill:#FDFFFE;stroke:#FF0019;stroke-width:36;stroke-miterlimit:10;}
	.st15{fill:none;}
</style>
<g id="Capa_2" class="st0">
</g>
<g id="Capa_3">
	<g>
		<g>
			<path class="st1" d="M1011.3,683.6H108.7c-10.2,0-18.6-8.3-18.6-18.6V110.5c0-10.2,8.3-18.6,18.6-18.6h902.7
				c10.2,0,18.6,8.3,18.6,18.6V665C1029.9,675.3,1021.6,683.6,1011.3,683.6z M126.2,647.5h867.7V128H126.2V647.5z"/>
		</g>
		<path class="st1" d="M1002.7,7.1H117.3C52.6,7.1,0,59.7,0,124.4v532.1c0,64.7,52.6,117.3,117.3,117.3h302.9v67.7h-51.3
			c-11,0-19.8,8.9-19.8,19.8c0,11,8.9,19.8,19.8,19.8h382.1c11,0,19.8-8.9,19.8-19.8c0-11-8.9-19.8-19.8-19.8h-51.3v-67.7h302.9
			c64.7,0,117.3-52.6,117.3-117.3V124.4C1120,59.7,1067.4,7.1,1002.7,7.1z M456.3,829.7v-55.8h207.4v55.8H456.3z M1083.9,656.6
			c0,44.8-36.4,81.2-81.2,81.2H699.8H420.2H117.3c-44.8,0-81.2-36.4-81.2-81.2V124.4c0-44.8,36.4-81.2,81.2-81.2h885.4
			c44.8,0,81.2,36.4,81.2,81.2V656.6z"/>
		<g>
			<path class="st1" d="M1004.9,1112.9H115.1c-15.9,0-30.2-8.8-37.4-22.9c-7.2-14.1-6-30.9,3.3-43.8l61.4-85.3
				c7.9-11,20.7-17.5,34.2-17.5h765.2c13.3,0,25.9,6.4,33.8,17l63.3,85.3c9.5,12.8,11,29.7,3.8,44
				C1035.3,1104,1020.9,1112.9,1004.9,1112.9z M176.5,981.1c-1.4,0-2.8,0.7-3.6,1.8l-61.4,85.3c-1.3,1.8-0.9,3.5-0.3,4.6
				c0.6,1.1,1.7,2.4,3.9,2.4h889.8c2.3,0,3.4-1.3,4-2.4c0.6-1.1,0.9-2.8-0.4-4.6l-63.3-85.3c-0.8-1.1-2.2-1.8-3.6-1.8H176.5z"/>
		</g>
	</g>
</g>
<g id="_x37_ee36fe1-275f-4219-af5f-c82839a080ea" class="st0">
	<path class="st3" d="M884.5,0h-649c-43.7,0-79.2,48.7-79.2,108.5v902.9c0,59.8,35.5,108.5,79.2,108.5h649
		c43.7,0,79.2-48.7,79.2-108.5V108.5C963.7,48.7,928.2,0,884.5,0z M930.1,108.5v902.9c0,35.9-20.5,65.1-45.6,65.1h-649
		c-25.1,0-45.6-29.2-45.6-65.1V108.5c0-35.9,20.4-65.1,45.6-65.1h649C909.6,43.4,930.1,72.6,930.1,108.5z"/>
	<path class="st3" d="M260.6,138.9l-4.5,0.2v281.8l0.1,4.5h603.2l4.5-0.2V143.4l-0.1-4.5L260.6,138.9z M289.8,382V182.3h540.5V382
		H289.8z"/>
	<path class="st3" d="M385.3,833.5h-74.9c-29.9,0-54.3,33.1-54.3,73.8s24.4,73.8,54.3,73.8h74.9c29.9,0,54.3-33.1,54.3-73.8
		S415.2,833.5,385.3,833.5z M405.9,907.3c0,16.5-9.4,30.4-20.6,30.4h-74.9c-11.2,0-20.6-13.9-20.6-30.4s9.4-30.4,20.6-30.4h74.9
		C396.5,876.9,405.9,890.8,405.9,907.3L405.9,907.3z"/>
	<path class="st3" d="M585,833.5h-74.9c-29.9,0-54.3,33.1-54.3,73.8s24.4,73.8,54.3,73.8H585c29.9,0,54.3-33.1,54.3-73.8
		S614.9,833.5,585,833.5z M605.6,907.3c0,16.5-9.4,30.4-20.6,30.4h-74.9c-11.2,0-20.6-13.9-20.6-30.4s9.4-30.4,20.6-30.4H585
		C596.1,876.9,605.6,890.8,605.6,907.3L605.6,907.3z"/>
	<path class="st3" d="M809.6,659.8h-99.8c-29.9,0-54.3,33.1-54.3,73.8v173.6c0,40.7,24.3,73.8,54.3,73.8h99.8
		c29.9,0,54.3-33.1,54.3-73.8V733.6C863.9,693,839.5,659.8,809.6,659.8z M830.2,733.6v173.6c0,16.5-9.4,30.4-20.6,30.4h-99.8
		c-11.2,0-20.6-13.9-20.6-30.4V733.6c0-16.5,9.4-30.4,20.6-30.4h99.8C820.8,703.3,830.2,717.2,830.2,733.6z"/>
	<path class="st3" d="M385.3,659.8h-74.9c-29.9,0-54.3,33.1-54.3,73.8s24.4,73.8,54.3,73.8h74.9c29.9,0,54.3-33.1,54.3-73.8
		S415.2,659.8,385.3,659.8z M405.9,733.6c0,16.5-9.4,30.4-20.6,30.4h-74.9c-11.2,0-20.6-13.9-20.6-30.4s9.4-30.4,20.6-30.4h74.9
		C396.5,703.3,405.9,717.2,405.9,733.6L405.9,733.6z"/>
	<path class="st3" d="M585,659.8h-74.9c-29.9,0-54.3,33.1-54.3,73.8s24.4,73.8,54.3,73.8H585c29.9,0,54.3-33.1,54.3-73.8
		S614.9,659.8,585,659.8z M605.6,733.6c0,16.5-9.4,30.4-20.6,30.4h-74.9c-11.2,0-20.6-13.9-20.6-30.4s9.4-30.4,20.6-30.4H585
		C596.1,703.3,605.6,717.2,605.6,733.6L605.6,733.6z"/>
	<path class="st3" d="M385.3,486.2h-74.9c-29.9,0-54.3,33.1-54.3,73.8s24.4,73.8,54.3,73.8h74.9c29.9,0,54.3-33.1,54.3-73.8
		S415.2,486.2,385.3,486.2z M405.9,560c0,16.5-9.4,30.4-20.6,30.4h-74.9c-11.2,0-20.6-13.9-20.6-30.4s9.4-30.4,20.6-30.4h74.9
		C396.5,529.6,405.9,543.5,405.9,560z"/>
	<path class="st3" d="M585,486.2h-74.9c-29.9,0-54.3,33.1-54.3,73.8s24.4,73.8,54.3,73.8H585c29.9,0,54.3-33.1,54.3-73.8
		S614.9,486.2,585,486.2z M605.6,560c0,16.5-9.4,30.4-20.6,30.4h-74.9c-11.2,0-20.6-13.9-20.6-30.4s9.4-30.4,20.6-30.4H585
		C596.1,529.6,605.6,543.5,605.6,560z"/>
	<path class="st3" d="M809.6,486.2h-99.8c-29.9,0-54.3,33.1-54.3,73.8s24.3,73.8,54.3,73.8h99.8c29.9,0,54.3-33.1,54.3-73.8
		S839.5,486.2,809.6,486.2z M830.2,560c0,16.5-9.4,30.4-20.6,30.4h-99.8c-11.2,0-20.6-13.9-20.6-30.4s9.4-30.4,20.6-30.4h99.8
		C820.8,529.6,830.2,543.5,830.2,560z"/>
</g>
<g id="Capa_4" class="st0">
	<g class="st3">
		<g>
			<path class="st1" d="M304,571.2c-56.2,0-101.9-45.7-101.9-101.9S247.8,367.3,304,367.3s101.9,45.7,101.9,101.9
				S360.2,571.2,304,571.2z M304,398.3c-39.2,0-71,31.9-71,71s31.9,71,71,71s71-31.9,71-71S343.1,398.3,304,398.3z"/>
		</g>
		<g>
			<path class="st1" d="M475.3,835.4H131.6c-14,0-25.3-11.5-25.3-25.6V697.6c0-35.9,9.6-69.1,27.1-93.6
				c20.6-28.8,50.4-44.1,86.2-44.1c9,0,16,5.8,30,24.7c7.5,10.1,16.9,24.1,28.1,41.6c9,14.1,17.7,28.3,24.4,39.3
				c7.8-11.1,18.2-25.7,29-40.2c13-17.5,24.1-31.5,32.9-41.6c15.5-17.8,23.7-23.7,32.8-23.7c33.4,0,61.1,16,80.1,46.1
				c15.4,24.5,23.9,57,23.9,91.5v112.2C500.7,823.9,489.3,835.4,475.3,835.4z M136.8,804.9h333.3V697.6c0-50.5-22-104.8-70.3-107
				c-3.9,3.1-16.3,15-47.9,57.9c-20.1,27.3-38,53.5-38.1,53.7l-13.6,19.9L288,701.3c-27-45.8-61-98.8-72.7-110.8
				c-54.2,2.6-78.5,55-78.5,107V804.9z"/>
		</g>
		<g>
			<rect x="573.7" y="455.4" class="st1" width="231.9" height="27.8"/>
		</g>
		<rect x="573.7" y="626.3" class="st1" width="231.9" height="28.7"/>
		<rect x="573.7" y="717.8" class="st1" width="111" height="19.9"/>
		<rect x="573.7" y="802.1" class="st1" width="111" height="19.9"/>
		<polygon class="st1" points="1017,848.3 921.2,848.3 921.2,752.5 887.5,752.5 887.5,848.3 791.7,848.3 791.7,882 887.5,882 
			887.5,977.8 921.2,977.8 921.2,882 1017,882 		"/>
		<g>
			<path class="st15" d="M848.8,269.4H582.6v2c0,30.9-25.2,56.1-56.1,56.1H397.2c-30.9,0-56.1-25.2-56.1-56.1v-2H67.3
				c-21.8,0-39.5,17.7-39.5,39.5v575.3c0,21.8,17.7,39.5,39.5,39.5h629.4c-5.3-18.8-8-38.5-8-58.6c0-57.6,22.4-111.7,63.2-152.5
				c36.9-36.9,84.9-58.8,136.4-62.6V308.9C888.3,287.2,870.6,269.4,848.8,269.4z"/>
			<path class="st1" d="M1056.8,712.7c-37.9-37.9-87.5-60-140.7-62.8V308.9c0-37.1-30.2-67.3-67.3-67.3H582.6V95.3
				c0-30.9-25.2-56.1-56.1-56.1H397.2c-30.9,0-56.1,25.2-56.1,56.1v146.3H67.3C30.2,241.6,0,271.8,0,308.9v575.3
				c0,37.1,30.2,67.3,67.3,67.3h639.4c10.6,24.3,25.8,46.7,45.2,66c40.7,40.7,94.9,63.2,152.5,63.2s111.7-22.4,152.5-63.2
				c40.7-40.7,63.2-94.9,63.2-152.5S1097.6,753.4,1056.8,712.7z M368.9,269.4v-27.8V95.3c0-15.6,12.7-28.3,28.3-28.3h129.3
				c15.6,0,28.3,12.7,28.3,28.3v146.3v27.8v2c0,15.6-12.7,28.3-28.3,28.3H397.2c-15.6,0-28.3-12.7-28.3-28.3V269.4z M696.8,923.8
				H67.3c-21.8,0-39.5-17.7-39.5-39.5V308.9c0-21.8,17.7-39.5,39.5-39.5h273.8v2c0,30.9,25.2,56.1,56.1,56.1h129.3
				c30.9,0,56.1-25.2,56.1-56.1v-2h266.3c21.8,0,39.5,17.7,39.5,39.5v341.2c-51.6,3.8-99.5,25.7-136.4,62.6
				c-40.7,40.7-63.2,94.9-63.2,152.5C688.7,885.3,691.5,904.9,696.8,923.8z M904.4,1045.2c-68,0-127.2-37.8-157.9-93.6
				c-4.9-8.9-9-18.2-12.4-27.8c-6.3-18.4-9.8-38.1-9.8-58.6c0-93.9,72.2-171.1,164-179.3c5.3-0.5,10.6-0.7,16-0.7
				c4,0,7.9,0.1,11.8,0.4c93.8,6.1,168.2,84.3,168.2,179.6C1084.4,964.4,1003.6,1045.2,904.4,1045.2z"/>
			<path class="st1" d="M461.8,108.1c-30.1,0-54.7,24.5-54.7,54.7s24.5,54.7,54.7,54.7s54.7-24.5,54.7-54.7S492,108.1,461.8,108.1z
				 M461.8,203.5c-22.5,0-40.8-18.2-40.8-40.8s18.2-40.8,40.8-40.8c22.5,0,40.8,18.2,40.8,40.8S484.3,203.5,461.8,203.5z"/>
			<path class="st1" d="M461.8,122c-22.5,0-40.8,18.2-40.8,40.8s18.2,40.8,40.8,40.8c22.5,0,40.8-18.2,40.8-40.8
				S484.3,122,461.8,122z M461.8,189.6c-14.8,0-26.9-12-26.9-26.9c0-14.8,12-26.9,26.9-26.9c14.8,0,26.9,12,26.9,26.9
				C488.7,177.6,476.6,189.6,461.8,189.6z"/>
		</g>
	</g>
</g>
</svg>
