<svg id="e445e2d5-b8bb-4367-847e-a68785d7baa4" data-name="Icons" xmlns="http://www.w3.org/2000/svg" viewBox="0 0 1120 1120"><defs><style>.\36 6ba4b6d-59b2-47ec-890a-b9d52e9290c8{fill:#2a633d;stroke:#2a633d;stroke-miterlimit:10;stroke-width:8.22px;}</style></defs><title>icoConsultaFolio</title><path class="66ba4b6d-59b2-47ec-890a-b9d52e9290c8" d="M1100.75,973.25l-123.06-123s-.05.08-.07.13a229.72,229.72,0,0,0-188.69-339V231.28L591.7,34H0V1086H788.93V970.25a229.64,229.64,0,0,0,95.79-27.08l123,123.05a65.74,65.74,0,0,0,93-93ZM591.7,80.54,742.45,231.28H591.7ZM32.87,1053.08V66.92h526V264.15H756.06V511.61a229.92,229.92,0,0,0,0,458.28v83.19ZM788.93,937.37h0c-4.52.31-9,.66-13.61.66a197.23,197.23,0,1,1,0-394.46c4.58,0,9.09.35,13.61.66h0a197,197,0,0,1,0,393.14ZM1077.5,1043a32.89,32.89,0,0,1-46.49,0L913,924.91a208.07,208.07,0,0,0,46.48-46.49L1077.5,996.49a32.86,32.86,0,0,1,0,46.48Z"/><rect class="66ba4b6d-59b2-47ec-890a-b9d52e9290c8" x="131.49" y="231.28" width="230.11" height="32.87"/><rect class="66ba4b6d-59b2-47ec-890a-b9d52e9290c8" x="131.49" y="395.64" width="394.47" height="32.87"/><rect class="66ba4b6d-59b2-47ec-890a-b9d52e9290c8" x="131.49" y="494.26" width="394.47" height="32.87"/><rect class="66ba4b6d-59b2-47ec-890a-b9d52e9290c8" x="131.49" y="592.87" width="230.11" height="32.87"/><rect class="66ba4b6d-59b2-47ec-890a-b9d52e9290c8" x="131.49" y="822.98" width="230.11" height="32.87"/></svg>