<svg id="7ee36fe1-275f-4219-af5f-c82839a080ea" data-name="Icons" xmlns="http://www.w3.org/2000/svg" viewBox="0 0 1120 1120"><defs><style>.\38 160cefd-bf09-4b27-8e52-3b92784b9101{fill:#2a633d;}</style></defs><title>Objeto inteligente vectorial15</title><path class="8160cefd-bf09-4b27-8e52-3b92784b9101" d="M884.5,0h-649c-43.68,0-79.22,48.68-79.22,108.53v902.94c0,59.85,35.54,108.53,79.22,108.53h649c43.68,0,79.22-48.68,79.22-108.53V108.53C963.72,48.68,928.18,0,884.5,0Zm45.58,108.53v902.94c0,35.91-20.45,65.12-45.58,65.12h-649c-25.13,0-45.58-29.21-45.58-65.12V108.53c0-35.91,20.45-65.12,45.58-65.12h649C909.63,43.41,930.08,72.62,930.08,108.53Z"/><path class="8160cefd-bf09-4b27-8e52-3b92784b9101" d="M260.58,138.91l-4.46.17V420.92l.12,4.51H859.42l4.46-.17V143.43l-.12-4.52ZM289.77,382V182.33H830.23V382Z"/><path class="8160cefd-bf09-4b27-8e52-3b92784b9101" d="M385.27,833.49H310.39c-29.92,0-54.27,33.11-54.27,73.8s24.35,73.8,54.27,73.8h74.88c29.91,0,54.26-33.11,54.26-73.8S415.18,833.49,385.27,833.49Zm20.62,73.8c0,16.47-9.44,30.38-20.62,30.38H310.39c-11.18,0-20.62-13.91-20.62-30.38s9.44-30.39,20.62-30.39h74.88C396.45,876.9,405.89,890.81,405.89,907.29Z"/><path class="8160cefd-bf09-4b27-8e52-3b92784b9101" d="M585,833.49H510.08c-29.92,0-54.27,33.11-54.27,73.8s24.35,73.8,54.27,73.8H585c29.91,0,54.26-33.11,54.26-73.8S614.87,833.49,585,833.49Zm20.62,73.8c0,16.47-9.44,30.38-20.62,30.38H510.08c-11.18,0-20.62-13.91-20.62-30.38s9.44-30.39,20.62-30.39H585C596.14,876.9,605.58,890.81,605.58,907.29Z"/><path class="8160cefd-bf09-4b27-8e52-3b92784b9101" d="M809.61,659.84H709.77c-29.92,0-54.27,33.11-54.27,73.8V907.29c0,40.69,24.35,73.8,54.27,73.8h99.84c29.92,0,54.27-33.11,54.27-73.8V733.64C863.88,693,839.53,659.84,809.61,659.84Zm20.62,73.8V907.29c0,16.47-9.44,30.38-20.62,30.38H709.77c-11.18,0-20.62-13.91-20.62-30.38V733.64c0-16.47,9.44-30.38,20.62-30.38h99.84C820.79,703.26,830.23,717.17,830.23,733.64Z"/><path class="8160cefd-bf09-4b27-8e52-3b92784b9101" d="M385.27,659.84H310.39c-29.92,0-54.27,33.11-54.27,73.8s24.35,73.8,54.27,73.8h74.88c29.91,0,54.26-33.11,54.26-73.8S415.18,659.84,385.27,659.84Zm20.62,73.8c0,16.48-9.44,30.39-20.62,30.39H310.39c-11.18,0-20.62-13.91-20.62-30.39s9.44-30.38,20.62-30.38h74.88C396.45,703.26,405.89,717.17,405.89,733.64Z"/><path class="8160cefd-bf09-4b27-8e52-3b92784b9101" d="M585,659.84H510.08c-29.92,0-54.27,33.11-54.27,73.8s24.35,73.8,54.27,73.8H585c29.91,0,54.26-33.11,54.26-73.8S614.87,659.84,585,659.84Zm20.62,73.8c0,16.48-9.44,30.39-20.62,30.39H510.08c-11.18,0-20.62-13.91-20.62-30.39s9.44-30.38,20.62-30.38H585C596.14,703.26,605.58,717.17,605.58,733.64Z"/><path class="8160cefd-bf09-4b27-8e52-3b92784b9101" d="M385.27,486.2H310.39c-29.92,0-54.27,33.11-54.27,73.8s24.35,73.8,54.27,73.8h74.88c29.91,0,54.26-33.11,54.26-73.8S415.18,486.2,385.27,486.2ZM405.89,560c0,16.47-9.44,30.39-20.62,30.39H310.39c-11.18,0-20.62-13.92-20.62-30.39s9.44-30.39,20.62-30.39h74.88C396.45,529.61,405.89,543.53,405.89,560Z"/><path class="8160cefd-bf09-4b27-8e52-3b92784b9101" d="M585,486.2H510.08c-29.92,0-54.27,33.11-54.27,73.8s24.35,73.8,54.27,73.8H585c29.91,0,54.26-33.11,54.26-73.8S614.87,486.2,585,486.2ZM605.58,560c0,16.47-9.44,30.39-20.62,30.39H510.08c-11.18,0-20.62-13.92-20.62-30.39s9.44-30.39,20.62-30.39H585C596.14,529.61,605.58,543.53,605.58,560Z"/><path class="8160cefd-bf09-4b27-8e52-3b92784b9101" d="M809.61,486.2H709.77c-29.92,0-54.27,33.11-54.27,73.8s24.35,73.8,54.27,73.8h99.84c29.92,0,54.27-33.11,54.27-73.8S839.53,486.2,809.61,486.2ZM830.23,560c0,16.47-9.44,30.39-20.62,30.39H709.77c-11.18,0-20.62-13.92-20.62-30.39s9.44-30.39,20.62-30.39h99.84C820.79,529.61,830.23,543.53,830.23,560Z"/></svg>