<?xml version="1.0" encoding="utf-8"?>
<!-- Generator: Adobe Illustrator 22.1.0, SVG Export Plug-In . SVG Version: 6.00 Build 0)  -->
<svg version="1.1" xmlns="http://www.w3.org/2000/svg" xmlns:xlink="http://www.w3.org/1999/xlink" x="0px" y="0px"
	 viewBox="0 0 12 12" style="enable-background:new 0 0 12 12;" xml:space="preserve">
<style type="text/css">
	.st0{display:none;}
	.st1{display:inline;fill:#006338;}
	.st2{display:inline;fill:#FFFFFF;}
	.st3{fill:#006338;}
	.st4{fill:#FFFFFF;stroke:#006338;stroke-width:0.5;stroke-miterlimit:10;}
	.st5{fill:#FFFFFF;}
	.st6{display:inline;}
</style>
<g id="_x38_8845a4c-430b-4301-9175-b3fe2afe4e0b" class="st0">
	<path class="st1" d="M8.3,7.4H7.8L7.6,7.2C9,5.6,8.8,3.1,7.2,1.7S3.1,0.4,1.6,2.1S0.4,6.2,2.1,7.6c0.7,0.6,1.6,0.9,2.6,0.9
		c0.9,0,1.9-0.4,2.6-1l0.2,0.2v0.5l3,3l0.9-0.9L8.3,7.4z"/>
	<rect x="2" y="4.6" class="st2" width="5.1" height="0.6"/>
	<rect x="2" y="4.6" transform="matrix(-1.836970e-16 1 -1 -1.836970e-16 9.4335 0.3146)" class="st2" width="5.1" height="0.6"/>
</g>
<g id="Capa_2">
	<g>
		<polygon class="st3" points="3.3,4.1 1.2,5.7 1.2,8.8 10.8,8.8 10.8,5.7 8.7,4.1 		"/>
	</g>
	<rect x="4.2" y="7.2" class="st4" width="3.5" height="3.1"/>
	<rect x="3.5" y="2.3" class="st3" width="4.9" height="1.6"/>
	<rect x="8.9" y="5.6" class="st5" width="0.7" height="0.7"/>
</g>
<g id="Capa_3" class="st0">
	<g class="st6">
		<polygon class="st3" points="2.3,8.5 2,10 3.5,9.7 9,4.1 7.9,3 		"/>
		<rect x="8.2" y="2.3" transform="matrix(0.7071 0.7071 -0.7071 0.7071 4.7266 -5.5595)" class="st3" width="1.7" height="1.3"/>
	</g>
</g>
</svg>
