<svg id="82358eb1-be81-44ea-a075-78427e048605" data-name="Icons" xmlns="http://www.w3.org/2000/svg" viewBox="0 0 1120 1120"><defs><style>.d2c9ebe3-f50b-4f1b-87fe-2c56d436b32f{fill:#2a633d;stroke:#2a633d;stroke-miterlimit:10;stroke-width:7.85px;}</style></defs><title>icoPortalServicios</title><path class="d2c9ebe3-f50b-4f1b-87fe-2c56d436b32f" d="M1056.8,242.61H63.2L.28,557.22,0,695.44H60.65v363.9H695.44V695.44H909.77v363.9h149.58V695.44H1120V560Zm34.91,422.67c-285.33,1.16-961.4,3.21-1063.42.61V573.75c41,1,153.35,1.38,291.46,1.38,282.78,0,672.17-1.5,772-1.9Zm-772,30.17H545.86V909.77H210.23V695.44H319.75Zm443-149.38L749.59,270.88h138.9l32,274.7C871,545.75,817.71,545.91,762.7,546.07Zm-28.32.07c-52.33.14-105.88.27-159,.38V270.88H721.26Zm-187.3.43c-52.33.1-103.93.17-153.23.22L407,270.88H547.08Zm-181.55.23c-57.24,0-110.79,0-157.95,0l32.18-275.87H378.67Zm722.9-1.83c-39.92.16-87.25.34-139.45.52L917,270.88h116.66ZM86.39,270.88H211.31L179.13,546.69c-69.94-.16-122.64-.49-147.69-1.05Zm2.55,760.19V694.87c25.88.2,57.41.33,93,.43V938H574.14V695.16l93-.21v336.12Zm849.11,0V694.13l93-.34v337.28Z"/><path class="d2c9ebe3-f50b-4f1b-87fe-2c56d436b32f" d="M1059.35,60.66H60.65V210.23h998.7ZM1031.06,182H88.94v-93h942.12Z"/></svg>