<svg id="41cbc9fd-8833-4be7-b766-e70d97713622" data-name="Icons" xmlns="http://www.w3.org/2000/svg" viewBox="0 0 1120 1120"><defs><style>.bc13ceb4-371f-42f7-a9ec-1c6b6ee5d365{fill:#2a633d;stroke:#2a633d;stroke-miterlimit:10;stroke-width:8.75px;}</style></defs><title>icoRegistroAf</title><path class="bc13ceb4-371f-42f7-a9ec-1c6b6ee5d365" d="M914.72,31.6,900.21,63.52C1009,113.19,1085,222.77,1085,350s-76,236.81-184.79,286.48l14.51,31.92C1035.71,613.3,1120,491.62,1120,350S1035.71,86.7,914.72,31.6Z"/><path class="bc13ceb4-371f-42f7-a9ec-1c6b6ee5d365" d="M1015,350c0-99.14-59-184.31-143.69-222.89L856.82,159C929.36,192.12,980,265.18,980,350S929.36,507.88,856.82,541l14.49,31.89C956,534.31,1015,449.14,1015,350Z"/><path class="bc13ceb4-371f-42f7-a9ec-1c6b6ee5d365" d="M910,350a139.92,139.92,0,0,0-82.1-127.36L813.41,254.5a104.84,104.84,0,0,1,0,191l14.49,31.86A139.93,139.93,0,0,0,910,350Z"/><rect class="bc13ceb4-371f-42f7-a9ec-1c6b6ee5d365" x="280" y="70" width="140" height="35"/><path class="bc13ceb4-371f-42f7-a9ec-1c6b6ee5d365" d="M595,0H105A105.12,105.12,0,0,0,0,105v910a105.12,105.12,0,0,0,105,105H595a105.12,105.12,0,0,0,105-105V105A105.12,105.12,0,0,0,595,0Zm70,1015a70.21,70.21,0,0,1-70,70H105a70.21,70.21,0,0,1-70-70V910H665Zm0-140H35V175H665Zm0-735H35V105a70.21,70.21,0,0,1,70-70H595a70.21,70.21,0,0,1,70,70Z"/><path class="bc13ceb4-371f-42f7-a9ec-1c6b6ee5d365" d="M350,1067.5a70,70,0,1,0-70-70A70,70,0,0,0,350,1067.5Zm0-105a35,35,0,1,1-35,35A35,35,0,0,1,350,962.5Z"/><path class="bc13ceb4-371f-42f7-a9ec-1c6b6ee5d365" d="M360.28,589.26H339.72c-15.6,0-28.27-11.54-28.27-25.71H285.74c0,27.51,22.87,49.85,51.41,51.16v25.95h25.7V614.71c28.54-1.31,51.41-23.65,51.41-51.16,0-28.35-24.22-51.4-54-51.4H339.72c-15.6,0-28.27-11.54-28.27-25.7s12.67-25.71,28.27-25.71h20.56c15.6,0,28.27,11.54,28.27,25.71h25.71c0-27.52-22.87-49.85-51.41-51.16v-26h-25.7v26c-28.54,1.31-51.41,23.64-51.41,51.16,0,28.35,24.22,51.4,54,51.4h20.56c15.6,0,28.27,11.54,28.27,25.7S375.88,589.26,360.28,589.26Z"/><path class="bc13ceb4-371f-42f7-a9ec-1c6b6ee5d365" d="M350,730.63c113.55,0,205.63-92.06,205.63-205.63S463.55,319.38,350,319.38,144.38,411.43,144.38,525,236.44,730.63,350,730.63Zm0-385.55c99.21,0,179.92,80.71,179.92,179.92S449.21,704.92,350,704.92,170.08,624.21,170.08,525,250.79,345.08,350,345.08Z"/></svg>