<?xml version="1.0" encoding="iso-8859-1"?>
<!-- Generator: Adobe Illustrator 22.1.0, SVG Export Plug-In . SVG Version: 6.00 Build 0)  -->
<svg version="1.1" xmlns="http://www.w3.org/2000/svg" xmlns:xlink="http://www.w3.org/1999/xlink" x="0px" y="0px"
	 viewBox="0 0 100 100" style="enable-background:new 0 0 100 100;" xml:space="preserve">
<g id="icoCalendario1">
	<g>
		<polygon style="fill:none;" points="87.142,28.019 12.857,28.019 12.857,28.02 87.143,28.02 87.143,14.26 87.142,14.26 		"/>
		<path style="fill:#575757;" d="M29.312,78.346c-2.601,0-4.718-2.117-4.718-4.718c0-2.601,2.117-4.718,4.718-4.718
			c2.601,0,4.718,2.117,4.718,4.718C34.029,76.229,31.913,78.346,29.312,78.346z M29.312,57.892c-2.601,0-4.718-2.117-4.718-4.718
			c0-2.601,2.117-4.718,4.718-4.718c2.601,0,4.718,2.117,4.718,4.718C34.029,55.776,31.913,57.892,29.312,57.892z M49.999,78.346
			c-2.601,0-4.718-2.117-4.718-4.718c0-2.601,2.117-4.718,4.718-4.718s4.718,2.117,4.718,4.718
			C54.717,76.229,52.601,78.346,49.999,78.346z M49.999,57.892c-2.601,0-4.718-2.117-4.718-4.718c0-2.601,2.117-4.718,4.718-4.718
			s4.718,2.117,4.718,4.718C54.717,55.776,52.601,57.892,49.999,57.892z M70.687,78.346c-2.601,0-4.718-2.117-4.718-4.718
			c0-2.601,2.117-4.718,4.718-4.718c2.601,0,4.718,2.117,4.718,4.718C75.405,76.229,73.288,78.346,70.687,78.346z M70.687,57.892
			c-2.601,0-4.718-2.117-4.718-4.718c0-2.601,2.117-4.718,4.718-4.718c2.601,0,4.718,2.117,4.718,4.718
			C75.405,55.776,73.288,57.892,70.687,57.892z"/>
		<circle style="fill:#575757;" cx="29.312" cy="53.174" r="4.718"/>

			<ellipse transform="matrix(0.9871 -0.1602 0.1602 0.9871 -7.6048 12.0094)" style="fill:#575757;" cx="70.687" cy="53.174" rx="4.718" ry="4.718"/>
		<circle style="fill:#575757;" cx="49.999" cy="53.174" r="4.718"/>
		<circle style="fill:#575757;" cx="29.312" cy="73.628" r="4.718"/>

			<ellipse transform="matrix(0.9871 -0.1602 0.1602 0.9871 -10.8811 12.2735)" style="fill:#575757;" cx="70.687" cy="73.628" rx="4.718" ry="4.718"/>
		<circle style="fill:#575757;" cx="49.999" cy="73.628" r="4.718"/>
		<path style="fill:#575757;" d="M74.076,6.349V0h-8.659v6.349H34.582V0h-8.659v6.349H4.946V100h90.108V6.349H74.076z
			 M87.143,92.089H12.857V35.93h74.284h0.001V92.089z M87.143,28.02H12.857v-0.001V14.26h13.067v8.528h8.658V14.26h0.001h30.834
			v8.528h8.658V14.26h0.001h13.066h0.001V28.02z"/>
		<rect x="74.075" y="14.26" style="fill:#575757;" width="0.001" height="8.528"/>
		<rect x="34.582" y="14.26" style="fill:#575757;" width="0.001" height="8.528"/>
	</g>
</g>
<g id="Capa_1">
</g>
</svg>
