<svg xmlns="http://www.w3.org/2000/svg" viewBox="0 0 100 100"><defs><style>.cls-1,.cls-2{fill:#54585a;}.cls-2{opacity:0;}</style></defs><title>checkbox</title><g id="Capa_2" data-name="Capa 2"><g id="Capa_1-2" data-name="Capa 1"><g id="Capa_14" data-name="Capa 14"><g id="Capa_11" data-name="Capa 11"><path class="cls-1" d="M87.1,45.8a4.35,4.35,0,0,0-3.8,4.4v29A8.28,8.28,0,0,1,75,87.5H18.3a10,10,0,0,1-10-10V22.9A10.39,10.39,0,0,1,18.7,12.5H62.3a4.35,4.35,0,0,0,4.4-3.8,4.12,4.12,0,0,0-4.2-4.5H16.7A16.73,16.73,0,0,0,0,20.9V79.1A16.73,16.73,0,0,0,16.7,95.8H75A16.73,16.73,0,0,0,91.7,79.1V50A4.26,4.26,0,0,0,87.1,45.8Z"/></g></g><rect class="cls-2" width="100" height="100"/><g id="Capa_31" data-name="Capa 31"><path class="cls-1" d="M16.75,12.58a8.44,8.44,0,0,0-8.33,8V79.46c0,3.31,3.1,8,7.73,8H75.46c3.75,0,8.13-3,8.13-9V20.54c0-3.62,0-8-8.13-8ZM16,4.08H76c10.23,0,16,5.47,16,15.31V79.25c0,10-9.24,16.67-16,16.67H16C9.17,95.92.08,89.54.08,79.25V19.39C.08,13.29,6.5,4.08,16,4.08Z"/></g></g></g></svg>