<?xml version="1.0" encoding="iso-8859-1"?>
<!-- Generator: Adobe Illustrator 22.1.0, SVG Export Plug-In . SVG Version: 6.00 Build 0)  -->
<svg version="1.1" xmlns="http://www.w3.org/2000/svg" xmlns:xlink="http://www.w3.org/1999/xlink" x="0px" y="0px"
	 viewBox="0 0 100 100" style="enable-background:new 0 0 100 100;" xml:space="preserve">
<g id="icoEliminar3">
	<g>
		<path style="fill:#575757;" d="M50,32c-1.841,0-3.333,1.492-3.333,3.333v45.333C46.667,82.508,48.159,84,50,84
			s3.333-1.492,3.333-3.333V35.333C53.333,33.492,51.841,32,50,32z"/>
		<path style="fill:#575757;" d="M34.569,32.001c-1.84,0.054-3.288,1.59-3.234,3.43l1.333,45.333c0.054,1.84,1.59,3.288,3.43,3.234
			s3.288-1.59,3.234-3.43l-1.333-45.333C37.944,33.395,36.409,31.947,34.569,32.001z"/>
		<path style="fill:#575757;" d="M65.431,32.001c-1.84-0.054-3.376,1.394-3.43,3.234l-1.333,45.333
			c-0.054,1.84,1.394,3.376,3.234,3.43c1.84,0.054,3.376-1.394,3.43-3.234l1.333-45.333C68.719,33.591,67.271,32.056,65.431,32.001z
			"/>
		<path style="fill:#575757;" d="M88,18.667C88,16.089,85.911,14,83.333,14H67.81l-1.322-5.288C65.254,3.774,60.424,0,55.338,0
			H44.662c-5.086,0-9.916,3.776-11.15,8.712L32.19,14H16.667C14.089,14,12,16.089,12,18.667c0,2.125,1.429,3.897,3.371,4.462
			l2.438,67.042c0.198,5.448,4.741,9.83,10.199,9.83h43.984c5.466,0,10-4.373,10.199-9.83l2.438-67.042
			C86.571,22.564,88,20.791,88,18.667z M42.566,10.976c0.196-0.783,1.295-1.642,2.095-1.642h10.677c0.802,0,1.899,0.857,2.095,1.642
			L58.19,14H41.81L42.566,10.976z M71.992,90.667H28.008c-0.434,0-0.856-0.407-0.872-0.836l-2.418-66.497h50.564l-2.418,66.497
			C72.848,90.269,72.435,90.667,71.992,90.667z"/>
	</g>
</g>
<g id="Capa_1">
</g>
</svg>
