<?xml version="1.0" encoding="utf-8"?>
<!-- Generator: Adobe Illustrator 22.1.0, SVG Export Plug-In . SVG Version: 6.00 Build 0)  -->
<svg version="1.1" id="Capa_1" xmlns="http://www.w3.org/2000/svg" xmlns:xlink="http://www.w3.org/1999/xlink" x="0px" y="0px"
	 viewBox="0 0 40 40" style="enable-background:new 0 0 40 40;" xml:space="preserve">
<style type="text/css">
	.st0{fill:#A3A3A3;}
</style>
<path class="st0" d="M6.8,15c0.1,0,0.2,0,0.4-0.1c0.1-0.1,0.2-0.1,0.3-0.2c0.5-0.7,1.1-1.3,1.8-1.9c1.9-1.6,4.1-2.7,6.4-3.3
	c2.3-0.6,4.8-0.7,7.2-0.3c2.9,0.5,5.6,1.7,7.9,3.5c0.2,0.1,0.4,0.2,0.6,0.2c0.2,0,0.4-0.1,0.6-0.3c0.1-0.2,0.2-0.4,0.2-0.6
	c0-0.2-0.1-0.4-0.3-0.6c-2.5-2-5.6-3.3-8.7-3.8c-2.6-0.4-5.3-0.3-7.8,0.4c-2.5,0.7-4.9,2-6.9,3.7c-0.8,0.6-1.5,1.4-2.1,2.1
	C6,13.9,5.9,14.1,6,14.3c0,0.2,0.1,0.4,0.3,0.5C6.4,14.9,6.6,15,6.8,15z"/>
<path class="st0" d="M6.1,13.7c0.6-0.8,1.4-1.5,2.1-2.1c2-1.7,4.4-3,6.9-3.7c2.5-0.7,5.2-0.8,7.8-0.4c3.2,0.5,6.2,1.8,8.7,3.8
	c0.2,0.1,0.3,0.3,0.3,0.6c0,0.2,0,0.4-0.2,0.6c-0.1,0.2-0.3,0.3-0.6,0.3c-0.2,0-0.4,0-0.6-0.2c-2.3-1.8-5-3-7.9-3.5
	c-2.4-0.4-4.8-0.3-7.2,0.3c-2.3,0.6-4.5,1.8-6.4,3.3c-0.7,0.6-1.3,1.2-1.8,1.9c-0.1,0.1-0.2,0.2-0.3,0.2C7,14.9,6.9,15,6.8,15
	c-0.2,0-0.4-0.1-0.5-0.2C6.1,14.7,6,14.5,6,14.3C5.9,14.1,6,13.9,6.1,13.7z"/>
<path class="st0" d="M33.4,19.9c-1-2.2-2.5-4.2-4.4-5.6c-1.9-1.5-4.2-2.4-6.6-2.8c-2.5-0.4-5-0.2-7.3,0.7c-2.3,0.9-4.4,2.4-6,4.3
	c-1.3,1.9-2.2,4.1-2.5,6.4c-0.3,2.3,0,4.7,0.9,6.9c0.1,0.2,0.2,0.4,0.4,0.5c0.2,0.1,0.4,0.1,0.6,0.1C8.7,30.2,8.9,30,9,29.8
	c0.1-0.2,0.1-0.4,0.1-0.6c-0.8-1.9-1.1-4-0.8-6.1c0.2-2.1,1-4.1,2.2-5.8c1.4-1.7,3.2-3,5.3-3.7c2.1-0.7,4.3-0.9,6.4-0.5
	c2.1,0.3,4.1,1.2,5.8,2.5c1.7,1.3,3.1,3,3.9,5l0.1,0.2c0.1,0.3,0.2,0.5,0.3,0.8c0.3,0.8,0.2,1.7-0.2,2.5c-0.3,0.7-0.9,1.2-1.6,1.4
	c-1,0.3-2,0.2-3-0.2s-1.6-1.2-2-2.1c-0.3-1.1-1-2.1-1.8-2.8c-0.8-0.8-1.8-1.3-2.9-1.6c-0.3-0.1-0.6-0.1-1-0.1
	c-0.9,0-1.7,0.2-2.5,0.6c-1.1,0.6-1.9,1.5-2.4,2.6c-0.4,1.5-0.4,3.1,0,4.6c0.4,1.5,1.2,2.9,2.3,4c2.3,2.5,5.2,4.1,8.5,4.8l0.1,0
	c0.2,0,0.5-0.1,0.6-0.2s0.3-0.3,0.3-0.6c0-0.2-0.1-0.4-0.2-0.6c-0.1-0.2-0.3-0.3-0.6-0.3c-2.9-0.6-5.5-2.1-7.4-4.2
	c-0.9-0.9-1.6-2-2-3.2c-0.4-1.2-0.5-2.5-0.2-3.8l0-0.1c0.3-0.7,0.9-1.3,1.6-1.7c0.7-0.4,1.5-0.5,2.3-0.4c1.2,0.3,2.5,0.9,3.6,3.5
	c0.6,1.3,1.6,2.4,2.9,3c1.3,0.6,2.8,0.7,4.2,0.2c1.1-0.4,2-1.2,2.5-2.2l0,0c0.3-0.6,0.5-1.2,0.5-1.9c0.1-0.7,0-1.3-0.2-1.9
	C33.7,20.6,33.5,20.2,33.4,19.9z"/>
<path class="st0" d="M33.5,24.7L33.5,24.7c-0.5,1.1-1.4,1.9-2.5,2.3c-1.4,0.5-2.8,0.4-4.2-0.2c-1.3-0.6-2.3-1.7-2.9-3
	c-1.2-2.6-2.5-3.2-3.6-3.5c-0.8-0.1-1.6,0-2.3,0.4c-0.7,0.4-1.3,1-1.6,1.7l0,0.1c-0.2,1.2-0.2,2.5,0.2,3.8c0.4,1.2,1.1,2.3,2,3.2
	c2,2.1,4.5,3.6,7.4,4.2c0.2,0,0.4,0.1,0.6,0.3c0.1,0.2,0.2,0.4,0.2,0.6c0,0.2-0.1,0.4-0.3,0.6s-0.4,0.2-0.6,0.2l-0.1,0
	c-3.3-0.7-6.2-2.3-8.5-4.8c-1.1-1.1-1.9-2.5-2.3-4c-0.4-1.5-0.4-3.1,0-4.6c0.5-1.1,1.3-2,2.4-2.6c0.8-0.4,1.7-0.6,2.5-0.6
	c0.3,0,0.7,0,1,0.1c1.1,0.3,2.1,0.8,2.9,1.6c0.8,0.8,1.4,1.7,1.8,2.8c0.4,0.9,1.1,1.7,2,2.1s2,0.5,3,0.2c0.7-0.3,1.3-0.8,1.6-1.4
	c0.4-0.8,0.5-1.7,0.2-2.5c-0.1-0.3-0.2-0.5-0.3-0.8l-0.1-0.2c-0.9-1.9-2.2-3.7-3.9-5c-1.7-1.3-3.7-2.2-5.8-2.5
	c-2.2-0.4-4.4-0.2-6.4,0.5c-2.1,0.7-3.9,2-5.3,3.7C9.2,19,8.5,21,8.2,23.1c-0.2,2.1,0.1,4.2,0.8,6.1c0.1,0.2,0,0.4-0.1,0.6
	c-0.1,0.2-0.3,0.3-0.5,0.4c-0.2,0.1-0.4,0-0.6-0.1c-0.2-0.1-0.3-0.3-0.4-0.5c-0.8-2.2-1.1-4.5-0.9-6.9c0.3-2.3,1.1-4.5,2.5-6.4
	c1.6-1.9,3.6-3.4,6-4.3c2.3-0.9,4.9-1.1,7.3-0.7c2.4,0.4,4.6,1.4,6.6,2.8c1.9,1.5,3.4,3.4,4.4,5.6c0.2,0.4,0.3,0.7,0.4,1.1
	c0.2,0.6,0.3,1.3,0.2,1.9C34,23.5,33.8,24.1,33.5,24.7z"/>
<path class="st0" d="M30.5,30c-0.2-0.2-0.4-0.2-0.6-0.2c-5.1,0-8.1-1.9-9.1-5.8c-0.1-0.2-0.2-0.4-0.4-0.5c-0.1-0.1-0.3-0.1-0.4-0.1
	c-0.1,0-0.1,0-0.2,0c-0.2,0.1-0.4,0.2-0.5,0.4c-0.1,0.2-0.2,0.4-0.1,0.7c0.8,3.2,3.4,7,10.7,7c0.1,0,0.3,0,0.4,0
	c0.1,0,0.2-0.1,0.3-0.2c0.1-0.1,0.1-0.2,0.2-0.3c0-0.1,0.1-0.2,0.1-0.3l0,0C30.7,30.3,30.6,30.1,30.5,30z"/>
<path class="st0" d="M30.7,30.9c0,0.1-0.1,0.2-0.2,0.3c-0.1,0.1-0.2,0.1-0.3,0.2c-0.1,0-0.2,0.1-0.4,0c-7.4,0-9.9-3.8-10.7-7
	c-0.1-0.2,0-0.5,0.1-0.7c0.1-0.2,0.3-0.3,0.5-0.4c0.1,0,0.1,0,0.2,0c0.2,0,0.3,0,0.4,0.1c0.2,0.1,0.3,0.3,0.4,0.5
	c1,3.8,4.1,5.8,9.1,5.8c0.2,0,0.4,0.1,0.6,0.2c0.2,0.2,0.2,0.4,0.2,0.6l0,0C30.7,30.7,30.7,30.8,30.7,30.9z"/>
<path class="st0" d="M17.8,35.3c-6-5.8-6.7-11.6-4.8-14.8c0.9-1.4,2.1-2.4,3.6-3.1c1.5-0.7,3.1-0.9,4.7-0.7l0,0
	c1.6,0.3,3.1,0.9,4.3,1.9c1.2,1,2.2,2.3,2.8,3.8c0.1,0.2,0.3,0.3,0.5,0.4c0.2,0.1,0.4,0.1,0.6,0c0.1,0,0.2-0.1,0.3-0.2
	c0.1-0.1,0.1-0.2,0.2-0.3c0-0.1,0-0.2,0-0.3c0-0.1,0-0.2-0.1-0.3c-0.7-1.7-1.9-3.3-3.4-4.4c-1.5-1.1-3.2-1.9-5.1-2.2
	c-0.5-0.1-1-0.1-1.5-0.1c-1.4,0-2.8,0.3-4.1,0.9c-1.8,0.8-3.2,2.1-4.2,3.8c-2.2,3.8-1.5,10.5,5.1,16.9c0.2,0.1,0.4,0.2,0.6,0.2
	c0.1,0,0.3,0,0.5-0.1c0.1-0.1,0.2-0.2,0.3-0.4c0.1-0.2,0.1-0.3,0-0.5C18,35.6,17.9,35.4,17.8,35.3z"/>
<path class="st0" d="M18,36.2c-0.1,0.2-0.2,0.3-0.3,0.4c-0.1,0.1-0.3,0.1-0.5,0.1c-0.2,0-0.4-0.1-0.6-0.2
	c-6.6-6.4-7.3-13.1-5.1-16.9c1-1.7,2.5-3,4.2-3.8c1.3-0.6,2.7-0.9,4.1-0.9c0.5,0,1,0,1.5,0.1c1.8,0.3,3.6,1,5.1,2.2
	c1.5,1.1,2.6,2.7,3.4,4.4c0,0.1,0.1,0.2,0.1,0.3c0,0.1,0,0.2,0,0.3c0,0.1-0.1,0.2-0.2,0.3c-0.1,0.1-0.2,0.1-0.3,0.2
	c-0.2,0.1-0.4,0.1-0.6,0c-0.2-0.1-0.4-0.2-0.5-0.4c-0.6-1.5-1.6-2.8-2.8-3.8c-1.2-1-2.7-1.7-4.3-1.9l0,0c-1.6-0.2-3.2,0-4.7,0.7
	c-1.5,0.7-2.7,1.7-3.6,3.1c-1.9,3.2-1.1,9.1,4.8,14.8c0.1,0.1,0.2,0.3,0.2,0.4C18,35.9,18,36.1,18,36.2z"/>
<path class="st0" d="M9.9,6.8C10.1,6.9,10.2,7,10.4,7l0.1,0l0.1,0c0.1,0,0.2,0,0.3,0c4.6-2.2,9.9-2.6,14.9-1.1c0.1,0,0.2,0,0.3,0
	c0.1,0,0.2,0,0.3-0.1c0.1-0.1,0.2-0.1,0.2-0.2c0.1-0.1,0.1-0.2,0.1-0.3c0-0.2,0.1-0.3,0-0.4s0-0.2-0.1-0.3c-0.1-0.1-0.1-0.2-0.2-0.2
	c-0.1-0.1-0.2-0.1-0.3-0.1C20.8,2.6,15.1,3.1,10,5.4C9.8,5.5,9.7,5.6,9.6,5.8C9.5,6,9.5,6.3,9.6,6.5C9.7,6.6,9.8,6.8,9.9,6.8z"/>
<path class="st0" d="M9.6,5.8C9.7,5.6,9.8,5.5,10,5.4c5.1-2.3,10.8-2.7,16.2-1.2c0.1,0,0.2,0.1,0.3,0.1c0.1,0.1,0.2,0.1,0.2,0.2
	c0.1,0.1,0.1,0.2,0.1,0.3s0,0.2,0,0.4c0,0.1-0.1,0.2-0.1,0.3c-0.1,0.1-0.1,0.2-0.2,0.2c-0.1,0.1-0.2,0.1-0.3,0.1c-0.1,0-0.2,0-0.3,0
	c-5-1.4-10.3-1-14.9,1.1c-0.1,0-0.2,0-0.3,0l-0.1,0l-0.1,0c-0.2,0-0.3,0-0.5-0.1C9.8,6.8,9.7,6.6,9.6,6.5C9.5,6.3,9.5,6,9.6,5.8z"/>
</svg>
