<svg xmlns="http://www.w3.org/2000/svg" viewBox="0 0 12 17.5" fill="none" x="0px" y="0px"><path d="M0.0828978 4.32741C0.0146652 4.43197 -0.0128419 4.55793 0.00558872 4.68141C0.0240194 4.8049 0.0871074 4.91733 0.182898 4.99741C0.270679 5.05993 0.375159 5.09476 0.482898 5.09741C0.560384 5.09665 0.636679 5.07825 0.705989 5.04359C0.775298 5.00894 0.835799 4.95895 0.882898 4.89741C1.0956 4.61964 1.33326 4.3619 1.5929 4.12741C2.33216 3.50953 3.19792 3.06126 4.12919 2.81419C5.06045 2.56712 6.03456 2.52726 6.9829 2.69741C8.13669 2.89261 9.22314 3.37395 10.1429 4.09741C10.2477 4.17963 10.3808 4.21686 10.513 4.20092C10.6452 4.18498 10.7657 4.11717 10.8479 4.01241C10.9301 3.90765 10.9673 3.77452 10.9514 3.64231C10.9355 3.51009 10.8677 3.38963 10.7629 3.30741C9.70455 2.47643 8.45172 1.92918 7.1229 1.71741C6.0367 1.5298 4.92238 1.58589 3.86051 1.88162C2.79864 2.17736 1.81575 2.70534 0.982898 3.42741C0.654477 3.69758 0.353063 3.99899 0.0828978 4.32741Z" fill="black"/><path d="M11.5429 8.99741C11.6758 8.74223 11.7566 8.46317 11.7806 8.17647C11.8047 7.88977 11.7715 7.60115 11.6829 7.32741C11.6316 7.1708 11.5715 7.01723 11.5029 6.86741C11.0936 5.93958 10.458 5.12931 9.65433 4.51083C8.85066 3.89236 7.90463 3.48546 6.90292 3.32741C5.87041 3.14729 4.80858 3.245 3.82628 3.61051C2.84398 3.97601 1.97655 4.59617 1.31292 5.40741C0.750867 6.21242 0.394949 7.14306 0.276391 8.11768C0.157832 9.0923 0.280255 10.0811 0.632919 10.9974C0.670049 11.1247 0.75623 11.2321 0.872503 11.2958C0.988775 11.3596 1.12562 11.3745 1.25292 11.3374C1.37913 11.296 1.48422 11.2071 1.54585 11.0894C1.60748 10.9718 1.62078 10.8347 1.58292 10.7074C1.27476 9.93975 1.16186 9.10763 1.25436 8.28562C1.34686 7.4636 1.64186 6.67738 2.11292 5.99741C2.66568 5.33112 3.38607 4.82423 4.19988 4.52894C5.01369 4.23365 5.89151 4.16063 6.74292 4.31741C7.57973 4.44913 8.37031 4.78803 9.04273 5.30325C9.71514 5.81848 10.248 6.49368 10.5929 7.26741C10.6429 7.39741 10.6929 7.51741 10.7329 7.64741C10.8251 7.94966 10.7964 8.27588 10.6529 8.55741C10.5427 8.79233 10.3455 8.97521 10.1029 9.06741C9.74554 9.17572 9.3607 9.14776 9.02272 8.98893C8.68475 8.8301 8.41762 8.55167 8.27292 8.20741C8.12598 7.74821 7.86572 7.33343 7.51617 7.00136C7.16662 6.66928 6.73905 6.43062 6.27292 6.30741C5.74579 6.20636 5.19996 6.288 4.72548 6.53888C4.25099 6.78976 3.8762 7.19488 3.66292 7.68741C3.48615 8.34054 3.48556 9.02884 3.66121 9.68227C3.83687 10.3357 4.18249 10.9309 4.66292 11.4074C5.6109 12.4304 6.85611 13.1299 8.22292 13.4074H8.29292C8.42553 13.4154 8.55586 13.3703 8.65526 13.2822C8.75465 13.194 8.81496 13.07 8.82292 12.9374C8.83088 12.8048 8.78583 12.6745 8.69769 12.5751C8.60954 12.4757 8.48553 12.4154 8.35292 12.4074C7.23016 12.159 6.20878 11.5769 5.42292 10.7374C5.06998 10.3921 4.80773 9.96496 4.65946 9.49396C4.51118 9.02296 4.48145 8.52265 4.57292 8.03741C4.69728 7.77782 4.90079 7.56438 5.15416 7.42781C5.40754 7.29124 5.69771 7.23858 5.98292 7.27741C6.42292 7.37741 6.89292 7.61741 7.33292 8.60741C7.57362 9.18706 8.02596 9.65333 8.59803 9.91151C9.17011 10.1697 9.81902 10.2004 10.4129 9.99741C10.9057 9.8244 11.3113 9.4655 11.5429 8.99741Z" fill="black"/><path d="M10.4329 11.2974C10.4329 11.1648 10.3802 11.0376 10.2864 10.9439C10.1927 10.8501 10.0655 10.7974 9.93287 10.7974C7.93287 10.7974 6.75287 10.0374 6.37287 8.55741C6.33972 8.4248 6.25525 8.3108 6.13804 8.24047C6.02083 8.17014 5.88048 8.14926 5.74787 8.18241C5.61526 8.21556 5.50126 8.30004 5.43093 8.41725C5.3606 8.53446 5.33972 8.6748 5.37287 8.80741C5.72287 10.1674 6.79287 11.8074 9.90287 11.8074C9.97186 11.8116 10.041 11.8014 10.1058 11.7775C10.1707 11.7536 10.2299 11.7165 10.2797 11.6686C10.3295 11.6207 10.3688 11.563 10.3952 11.4991C10.4215 11.4352 10.4344 11.3665 10.4329 11.2974Z" fill="black"/><path d="M6.35292 5.81741C6.9691 5.92529 7.548 6.18722 8.03579 6.57885C8.52359 6.97049 8.90443 7.4791 9.14292 8.05741C9.20286 8.17517 9.30699 8.26442 9.43253 8.30564C9.55808 8.34687 9.69484 8.33672 9.81292 8.27741C9.87218 8.24876 9.92505 8.20847 9.9684 8.15894C10.0117 8.10941 10.0447 8.05166 10.0652 7.98913C10.0857 7.92659 10.0934 7.86057 10.0879 7.79498C10.0824 7.7294 10.0637 7.66561 10.0329 7.60741C9.72299 6.87894 9.23259 6.24144 8.60797 5.75504C7.98336 5.26864 7.24513 4.9494 6.46292 4.82741C5.65364 4.69818 4.82421 4.81383 4.08116 5.15952C3.33811 5.50521 2.71536 6.06515 2.29292 6.76741C1.35292 8.36741 1.64292 11.1774 4.39292 13.8474C4.48797 13.9362 4.61285 13.9862 4.74292 13.9874C4.84285 13.988 4.94067 13.9587 5.02376 13.9031C5.10685 13.8476 5.17139 13.7685 5.20906 13.6759C5.24673 13.5833 5.2558 13.4816 5.2351 13.3838C5.2144 13.2861 5.16487 13.1968 5.09292 13.1274C2.72292 10.8374 2.41292 8.53741 3.15292 7.27741C3.48819 6.75086 3.96885 6.33274 4.53676 6.07364C5.10467 5.81453 5.73549 5.72553 6.35292 5.81741Z" fill="black"/><path d="M1.98289 1.83741C2.04882 1.85145 2.11696 1.85145 2.18289 1.83741C4.06177 0.964754 6.19294 0.801364 8.18289 1.37741C8.24863 1.39844 8.31813 1.40505 8.38666 1.39677C8.45518 1.3885 8.52112 1.36555 8.57997 1.32948C8.63881 1.29341 8.68919 1.24508 8.72766 1.18777C8.76613 1.13046 8.79179 1.06554 8.80289 0.997412C8.82254 0.933732 8.82899 0.866714 8.82186 0.800455C8.81472 0.734196 8.79414 0.67009 8.76138 0.612056C8.72862 0.554022 8.68436 0.503281 8.63132 0.462936C8.57828 0.422591 8.51756 0.39349 8.45289 0.377412C6.23158 -0.262066 3.85468 -0.0846854 1.75289 0.877412C1.63237 0.93217 1.53787 1.03164 1.48935 1.1548C1.44083 1.27797 1.4421 1.41517 1.49289 1.53741C1.53381 1.63173 1.60282 1.71114 1.6905 1.76482C1.77818 1.8185 1.88028 1.84385 1.98289 1.83741Z" fill="black"/><text x="0" y="29" fill="#000000" font-size="5px" font-weight="bold" font-family="'Helvetica Neue', Helvetica, Arial-Unicode, Arial, Sans-serif">Created by Oliver Silvérus</text><text x="0" y="34" fill="#000000" font-size="5px" font-weight="bold" font-family="'Helvetica Neue', Helvetica, Arial-Unicode, Arial, Sans-serif">from the Noun Project</text></svg>