<?xml version="1.0" encoding="utf-8"?>
<!-- Generator: Adobe Illustrator 21.0.2, SVG Export Plug-In . SVG Version: 6.00 Build 0)  -->
<svg version="1.1" id="Modo_de_aislamiento" xmlns="http://www.w3.org/2000/svg" xmlns:xlink="http://www.w3.org/1999/xlink"
	 x="0px" y="0px" viewBox="0 0 48 41.3" style="enable-background:new 0 0 48 41.3;" xml:space="preserve">
<style type="text/css">
	.st0{display:none;fill:#CBCBCB;}
	.st1{fill:#CBCBCB;}
</style>
<path class="st0" d="M11.7,34.9c0,0.8,0.6,1.4,1.4,1.4h22.4c0.8,0,1.4-0.6,1.4-1.4c0-6.6-3.2-12.3-7.8-14.7c2.1-1.5,3.5-4,3.5-6.8
	c0-4.6-3.7-8.3-8.3-8.3c-4.6,0-8.3,3.7-8.3,8.3c0,2.8,1.4,5.3,3.5,6.8C15,22.6,11.7,28.3,11.7,34.9z M24.4,24.5l-1.3-2.6
	c0.4-0.1,0.9-0.1,1.3-0.1s0.9,0.1,1.3,0.1L24.4,24.5z M24.4,7.9c3.1,0,5.5,2.5,5.5,5.5c0,3.1-2.5,5.5-5.5,5.5
	c-3.1,0-5.5-2.5-5.5-5.5C18.8,10.4,21.3,7.9,24.4,7.9z M20.4,22.9l2.7,5.4c0,0,0,0,0,0c0.1,0.1,0.1,0.2,0.2,0.3c0,0,0,0,0.1,0.1
	c0.1,0.1,0.1,0.1,0.2,0.2c0,0,0.1,0,0.1,0.1c0,0,0,0,0.1,0c0.1,0,0.1,0,0.2,0.1c0,0,0.1,0,0.1,0c0.1,0,0.2,0,0.3,0h0h0
	c0.1,0,0.2,0,0.4,0c0,0,0.1,0,0.1,0c0.1,0,0.1,0,0.2-0.1c0,0,0,0,0.1,0c0,0,0.1,0,0.1-0.1c0.1,0,0.1-0.1,0.2-0.2c0,0,0,0,0.1-0.1
	c0.1-0.1,0.1-0.2,0.2-0.3c0,0,0,0,0,0l2.7-5.4c3.1,1.9,5.4,5.8,5.8,10.6H14.6C15,28.8,17.3,24.8,20.4,22.9z"/>
<path class="st0" d="M37.4,9.2c-3-3.4-7.4-5.4-12-5.4c-4.6,0-9,2-12,5.4c-2.6,2.9-4,6.7-4,10.6c0,3.7,1.3,7.2,3.6,10.1
	c3.1,3.8,7.6,6,12.5,6c4.9,0,9.4-2.2,12.5-6c2.3-2.8,3.6-6.4,3.6-10.1C41.4,15.9,40,12.2,37.4,9.2z M36.8,27.9
	c-0.1,0-0.1-0.1-0.2-0.1c-0.2-0.1-0.3-0.2-0.5-0.2c-0.2-0.1-0.5-0.2-0.7-0.3c-0.2-0.1-0.4-0.1-0.6-0.2c0,0-0.1,0-0.1-0.1
	c0.6-1.8,0.9-3.9,1-6.1h3.7C39.1,23.4,38.3,25.8,36.8,27.9z M14.7,27.6c-0.2,0.1-0.3,0.2-0.5,0.2c-0.1,0-0.1,0.1-0.2,0.1
	c-1.5-2.1-2.3-4.5-2.5-7h3.7c0.1,2.2,0.4,4.2,1,6.1c0,0-0.1,0-0.1,0.1c-0.2,0.1-0.4,0.1-0.6,0.2C15.2,27.3,14.9,27.5,14.7,27.6z
	 M14.4,11.2c0.1,0,0.2,0.1,0.2,0.1c0.2,0.1,0.3,0.2,0.5,0.2c0.2,0.1,0.5,0.2,0.7,0.3c0.2,0.1,0.3,0.1,0.5,0.2
	c-0.7,2-1.1,4.3-1.2,6.8h-3.7C11.6,16.1,12.7,13.4,14.4,11.2z M31.4,10.8c-0.2,0-0.3,0.1-0.5,0.1c-0.3,0.1-0.5,0.1-0.8,0.2
	c-0.2,0-0.4,0.1-0.5,0.1c-0.3,0-0.6,0.1-0.8,0.1c-0.2,0-0.4,0-0.5,0.1c-0.3,0-0.6,0.1-0.9,0.1c-0.2,0-0.3,0-0.5,0
	c-0.1,0-0.3,0-0.4,0V6C28.4,6.5,30.2,8.2,31.4,10.8C31.5,10.8,31.5,10.8,31.4,10.8z M24.3,11.4c-0.1,0-0.3,0-0.4,0
	c-0.2,0-0.3,0-0.5,0c-0.3,0-0.6,0-0.9-0.1c-0.2,0-0.4,0-0.5-0.1c-0.3,0-0.6-0.1-0.8-0.1c-0.2,0-0.4-0.1-0.5-0.1
	c-0.3,0-0.5-0.1-0.8-0.2c-0.2,0-0.3-0.1-0.5-0.1c0,0-0.1,0-0.1,0c1.3-2.5,3.1-4.3,5.1-4.7V11.4z M18.6,12.7c0.2,0.1,0.4,0.1,0.6,0.1
	c0.3,0.1,0.6,0.1,0.9,0.2c0.2,0,0.4,0.1,0.6,0.1c0.3,0,0.6,0.1,0.9,0.1c0.2,0,0.4,0.1,0.6,0.1c0.3,0,0.7,0.1,1,0.1
	c0.2,0,0.4,0,0.5,0c0.2,0,0.4,0,0.6,0v5.3h-7.2c0.1-2.2,0.5-4.3,1.2-6.2C18.4,12.7,18.5,12.7,18.6,12.7z M24.3,20.9v4.5
	c-0.2,0-0.4,0-0.7,0c-0.2,0-0.4,0-0.5,0c-0.4,0-0.7,0.1-1.1,0.1c-0.2,0-0.4,0.1-0.6,0.1c-0.3,0-0.7,0.1-1,0.1
	c-0.2,0-0.4,0.1-0.6,0.1c-0.3,0.1-0.6,0.1-0.9,0.2c-0.2,0-0.4,0.1-0.6,0.2c0,0-0.1,0-0.1,0c-0.5-1.7-0.8-3.5-0.9-5.4H24.3z
	 M18.9,28.2c0.2,0,0.4-0.1,0.5-0.1c0.3-0.1,0.6-0.1,0.8-0.2c0.2,0,0.4-0.1,0.6-0.1c0.3,0,0.6-0.1,0.9-0.1c0.2,0,0.4-0.1,0.6-0.1
	c0.3,0,0.7-0.1,1-0.1c0.2,0,0.3,0,0.5,0c0.2,0,0.3,0,0.5,0v6.2C22.1,33.2,20.2,31.2,18.9,28.2C18.9,28.3,18.9,28.2,18.9,28.2z
	 M26.4,27.5c0.2,0,0.3,0,0.5,0c0.2,0,0.3,0,0.5,0c0.3,0,0.7,0,1,0.1c0.2,0,0.4,0,0.6,0.1c0.3,0,0.6,0.1,0.9,0.1
	c0.2,0,0.4,0.1,0.6,0.1c0.3,0.1,0.6,0.1,0.8,0.2c0.2,0,0.4,0.1,0.5,0.1c0,0,0.1,0,0.1,0c-1.3,2.9-3.3,5-5.5,5.5V27.5z M32.5,26.3
	c-0.2-0.1-0.4-0.1-0.6-0.2c-0.3-0.1-0.6-0.1-0.9-0.2c-0.2,0-0.4-0.1-0.6-0.1c-0.3-0.1-0.7-0.1-1-0.1c-0.2,0-0.4-0.1-0.6-0.1
	c-0.4,0-0.7-0.1-1.1-0.1c-0.2,0-0.4,0-0.5,0c-0.2,0-0.4,0-0.7,0v-4.5h7.2c-0.1,1.9-0.4,3.8-0.9,5.4C32.6,26.3,32.5,26.3,32.5,26.3z
	 M26.4,18.8v-5.3c0.2,0,0.4,0,0.6,0c0.2,0,0.4,0,0.5,0c0.4,0,0.7-0.1,1-0.1c0.2,0,0.4-0.1,0.6-0.1c0.3,0,0.6-0.1,0.9-0.1
	c0.2,0,0.4-0.1,0.6-0.1c0.3-0.1,0.6-0.1,0.9-0.2c0.2,0,0.4-0.1,0.6-0.1c0.1,0,0.1,0,0.2,0c0.7,1.8,1.1,3.9,1.2,6.2H26.4z M33.9,10
	c-0.1,0-0.1,0-0.2,0.1c0,0-0.1,0-0.1,0c-0.4-0.9-1-1.8-1.5-2.5c1,0.6,2,1.2,2.8,2C34.6,9.8,34.2,9.9,33.9,10z M17.1,10.1
	c0,0-0.1,0-0.1,0c-0.1,0-0.1,0-0.2-0.1c-0.4-0.1-0.7-0.3-1-0.4c0.9-0.8,1.8-1.5,2.8-2C18.1,8.4,17.6,9.2,17.1,10.1z M15.3,29.6
	C15.3,29.5,15.3,29.5,15.3,29.6c0.4-0.2,0.7-0.4,1.1-0.5c0.1-0.1,0.3-0.1,0.4-0.1c0,0,0,0,0,0c0.5,1.2,1.2,2.3,1.9,3.3
	C17.4,31.5,16.3,30.6,15.3,29.6C15.3,29.6,15.3,29.6,15.3,29.6z M33.9,28.9C33.9,28.9,33.9,28.9,33.9,28.9c0.1,0.1,0.3,0.1,0.4,0.1
	c0.4,0.2,0.7,0.3,1.1,0.5c0,0,0,0,0,0c0,0,0,0,0,0c-1,1-2.2,1.9-3.4,2.6C32.8,31.2,33.4,30.1,33.9,28.9z M35.6,18.8
	c-0.1-2.5-0.5-4.8-1.2-6.8c0.2-0.1,0.3-0.1,0.5-0.2c0.2-0.1,0.5-0.2,0.7-0.3c0.2-0.1,0.3-0.2,0.5-0.2c0.1,0,0.2-0.1,0.2-0.1
	c1.7,2.2,2.7,4.8,3,7.6H35.6z"/>
<path class="st0" d="M41.5,33.2c0-0.1,0-0.2,0-0.3V8.7c0,0,0,0,0-0.1c0.1-0.3,0-0.6-0.2-0.8c-0.1-0.1-0.2-0.2-0.4-0.3
	c-0.3-0.2-0.6-0.4-1-0.4H8.2C7.7,7.2,7.3,7.3,7,7.6C7,7.7,6.9,7.7,6.8,7.8C6.6,8.1,6.6,8.3,6.6,8.6c0,0,0,0.1,0,0.1V33
	c0,0.9,0.7,1.6,1.6,1.6H40c0.1,0,0.2,0,0.3,0c0.1,0,0.1,0,0.2,0c0.3,0,0.5-0.1,0.7-0.3C41.5,34,41.6,33.6,41.5,33.2z M8.6,10.6
	l11.6,9.2L8.6,31.5V10.6z M24.1,20.2L10.2,9.2h27.7L24.1,20.2z M21.9,21.1l1.5,1.2c0.2,0.1,0.4,0.2,0.6,0.2c0.2,0,0.5-0.1,0.6-0.2
	l1.8-1.4l11.5,11.6H10.6L21.9,21.1z M28.2,19.6l11.3-8.9V31L28.2,19.6z"/>
<g>
	<path class="st1" d="M19.1,10.4c-2.5,0-4.6,2.1-4.6,4.6c0,2.5,2.1,4.6,4.6,4.6s4.6-2.1,4.6-4.6C23.7,12.5,21.6,10.4,19.1,10.4z
		 M19.1,17.9c-1.6,0-2.8-1.3-2.8-2.8c0-1.6,1.3-2.8,2.8-2.8s2.8,1.3,2.8,2.8C21.9,16.6,20.6,17.9,19.1,17.9z"/>
	<path class="st1" d="M25.9,23.8l2-2c0.3-0.3,0.4-0.6,0.4-1c0-0.4-0.1-0.7-0.4-1l-1.7-1.7c0.1-0.1,0.1-0.2,0.1-0.4h2.4
		c0.8,0,1.4-0.6,1.4-1.4v-2.8c0-0.8-0.6-1.4-1.4-1.4h-2.4c0-0.1-0.1-0.2-0.1-0.4l1.7-1.7c0.5-0.5,0.5-1.4,0-2l-2-2
		c-0.5-0.5-1.4-0.5-2,0l-1.7,1.7c-0.1-0.1-0.2-0.1-0.4-0.1V5.4c0-0.8-0.6-1.4-1.4-1.4h-2.8c-0.8,0-1.4,0.6-1.4,1.4v2.4
		c-0.1,0-0.2,0.1-0.4,0.1l-1.7-1.7c-0.5-0.5-1.4-0.5-2,0l-2,2c-0.3,0.3-0.4,0.6-0.4,1c0,0.4,0.1,0.7,0.4,1l1.7,1.7
		c-0.1,0.1-0.1,0.2-0.1,0.4H9.5c-0.8,0-1.4,0.6-1.4,1.4v2.8c0,0.8,0.6,1.4,1.4,1.4h2.4c0,0.1,0.1,0.2,0.1,0.4l-1.7,1.7
		c-0.5,0.5-0.5,1.4,0,2l2,2c0.5,0.5,1.4,0.5,2,0l1.7-1.7c0.1,0.1,0.2,0.1,0.4,0.1v2.4c0,0.8,0.6,1.4,1.4,1.4h2.8
		c0.8,0,1.4-0.6,1.4-1.4v-2.4c0.1,0,0.2-0.1,0.4-0.1l1.7,1.7C24.4,24.3,25.3,24.3,25.9,23.8z M23,20.4c-0.3-0.3-0.7-0.3-1.1-0.1
		c-0.4,0.2-0.8,0.4-1.2,0.5c-0.4,0.1-0.6,0.5-0.6,0.8v2.6H18v-2.6c0-0.4-0.3-0.7-0.6-0.9c-0.4-0.1-0.8-0.3-1.2-0.5
		c-0.3-0.2-0.8-0.1-1.1,0.1l-1.9,1.9l-1.5-1.5l1.9-1.9c0.3-0.3,0.3-0.7,0.1-1.1c-0.2-0.4-0.4-0.8-0.5-1.2c-0.1-0.4-0.5-0.6-0.9-0.6
		H9.8V14h2.6c0.4,0,0.7-0.3,0.9-0.6c0.1-0.4,0.3-0.8,0.5-1.2c0.2-0.3,0.1-0.8-0.1-1.1l-1.9-1.9l1.5-1.5l1.9,1.9
		c0.3,0.3,0.7,0.3,1.1,0.1c0.4-0.2,0.8-0.4,1.2-0.5C17.8,9.2,18,8.8,18,8.4V5.8h2.1v2.6c0,0.4,0.3,0.7,0.6,0.8
		c0.4,0.1,0.9,0.3,1.2,0.5c0.3,0.2,0.8,0.1,1.1-0.1l1.9-1.9l1.5,1.5l-1.9,1.9c-0.3,0.3-0.3,0.7-0.1,1.1c0.2,0.4,0.4,0.8,0.5,1.2
		c0.1,0.4,0.5,0.6,0.9,0.6h2.6v2.1h-2.6c-0.4,0-0.7,0.3-0.9,0.6c-0.1,0.4-0.3,0.8-0.5,1.2c-0.2,0.3-0.1,0.8,0.1,1.1l1.9,1.9
		l-1.5,1.5L23,20.4z"/>
	<path class="st1" d="M39.7,30.5l-1.4-0.7l1.4-0.5c0.7-0.2,1-0.9,0.8-1.6l-0.6-2c-0.2-0.6-0.9-1-1.6-0.8l-1.4,0.5l0.7-1.4
		c0.3-0.6,0.1-1.4-0.5-1.7l-1.8-0.9c-0.6-0.3-1.4,0-1.7,0.5l-0.7,1.4l-0.5-1.4c-0.2-0.6-0.9-1-1.6-0.8l-2,0.6
		c-0.7,0.2-1,0.9-0.8,1.6l0.5,1.4l-1.4-0.7c-0.6-0.3-1.4-0.1-1.7,0.5l-0.9,1.8c-0.2,0.3-0.2,0.6-0.1,1c0.1,0.3,0.3,0.6,0.6,0.7
		l1.4,0.7L25,29.3c-0.3,0.1-0.6,0.3-0.7,0.6c-0.2,0.3-0.2,0.6-0.1,1l0.6,2c0.2,0.6,0.9,1,1.6,0.8l1.4-0.5l-0.7,1.4
		c-0.2,0.3-0.2,0.6-0.1,1c0.1,0.3,0.3,0.6,0.6,0.7l1.8,0.9c0.6,0.3,1.4,0.1,1.7-0.5l0.7-1.4l0.5,1.4c0.2,0.5,0.6,0.9,1.2,0.9
		c0.1,0,0.3,0,0.4-0.1l2-0.6c0.3-0.1,0.6-0.3,0.7-0.6c0.2-0.3,0.2-0.6,0.1-1l-0.5-1.4l1.4,0.7c0.2,0.1,0.4,0.1,0.6,0.1c0,0,0,0,0,0
		c0.5,0,0.9-0.3,1.1-0.7l0.9-1.8C40.6,31.5,40.3,30.8,39.7,30.5z M38,32.7L36.5,32c-0.4-0.2-0.8-0.1-1,0.2c-0.2,0.2-0.4,0.4-0.7,0.6
		c-0.3,0.2-0.5,0.6-0.3,1l0.5,1.6l-1,0.3l-0.5-1.6c-0.1-0.4-0.5-0.6-0.8-0.6c0,0,0,0,0,0l-0.1,0c-0.3,0-0.5,0-0.8-0.1
		c-0.4-0.1-0.8,0.1-1,0.5l-0.8,1.5L29,34.9l0.8-1.5c0.2-0.4,0.1-0.8-0.2-1c-0.2-0.2-0.4-0.4-0.6-0.7c-0.2-0.3-0.6-0.5-1-0.3
		l-1.6,0.5l-0.3-1l1.6-0.5c0.4-0.1,0.6-0.5,0.6-0.9c0-0.3,0-0.6,0.1-0.9c0.1-0.4-0.1-0.8-0.5-1l-1.5-0.8l0.5-0.9l1.5,0.8
		c0.4,0.2,0.8,0.1,1-0.2c0.2-0.2,0.4-0.4,0.7-0.6c0.3-0.2,0.5-0.6,0.3-1l-0.5-1.6l1-0.3l0.5,1.6c0.1,0.4,0.5,0.6,0.9,0.6l0.1,0
		c0.3,0,0.5,0,0.8,0.1c0.4,0.1,0.8-0.1,1-0.5l0.8-1.5l0.9,0.5l-0.8,1.5c-0.2,0.4-0.1,0.8,0.2,1c0.2,0.2,0.4,0.4,0.6,0.7
		c0.2,0.3,0.6,0.5,1,0.3l1.6-0.5l0.3,1l-1.6,0.5c-0.4,0.1-0.6,0.5-0.6,0.9c0,0.3,0,0.6-0.1,0.9c-0.1,0.4,0.1,0.8,0.5,1l1.5,0.8
		L38,32.7z"/>
	<path class="st1" d="M32.4,25.8c-0.4,0-0.7,0.1-1.1,0.2c-1.8,0.6-2.8,2.5-2.2,4.4c0.5,1.4,1.8,2.4,3.3,2.4c0.4,0,0.7-0.1,1.1-0.2
		c0.9-0.3,1.6-0.9,2-1.7c0.4-0.8,0.5-1.8,0.2-2.6C35.2,26.8,33.9,25.8,32.4,25.8z M33.9,30.1c-0.2,0.4-0.6,0.7-1,0.8
		c-0.9,0.3-1.8-0.2-2.1-1.1c-0.3-0.9,0.2-1.8,1.1-2.1c0.2-0.1,0.3-0.1,0.5-0.1c0.7,0,1.4,0.5,1.6,1.2C34.1,29.2,34.1,29.7,33.9,30.1
		z"/>
</g>
</svg>
