<?xml version="1.0" encoding="iso-8859-1"?>
<!-- Generator: Adobe Illustrator 22.1.0, SVG Export Plug-In . SVG Version: 6.00 Build 0)  -->
<svg version="1.1" xmlns="http://www.w3.org/2000/svg" xmlns:xlink="http://www.w3.org/1999/xlink" x="0px" y="0px"
	 viewBox="0 0 100 100" style="enable-background:new 0 0 100 100;" xml:space="preserve">
<g id="icoSubir">
	<g>
		<path style="fill:#575757;" d="M50.087,10.245h0.005c1.021,0,1.992,0.454,2.654,1.23l24.95,29.419
			c0.875,1.035,1.075,2.486,0.503,3.72c-0.571,1.23-1.806,2.02-3.162,2.02H64.292v22.024c0,1.924-1.561,3.485-3.485,3.485H39.192
			c-1.923,0-3.485-1.561-3.485-3.485V46.633H24.963c-1.361,0-2.596-0.79-3.162-2.024c-0.571-1.239-0.372-2.69,0.513-3.725
			l25.125-29.419C48.1,10.689,49.067,10.245,50.087,10.245z M67.515,39.664L50.078,19.106L32.523,39.664h6.67
			c1.923,0,3.485,1.561,3.485,3.485v22.024h14.646V43.149c0-1.923,1.561-3.485,3.485-3.485H67.515z"/>
		<path style="fill:#575757;" d="M89.901,89.755H10.096C4.528,89.755,0,85.227,0,79.659V63.715c0-5.568,4.528-10.096,10.096-10.096
			h14.787c1.923,0,3.485,1.561,3.485,3.485s-1.561,3.485-3.485,3.485H10.096c-1.724,0-3.127,1.402-3.127,3.127v15.944
			c0,1.724,1.402,3.127,3.127,3.127h79.805c1.724,0,3.13-1.402,3.13-3.127V63.715c0-1.724-1.406-3.127-3.13-3.127H75.146
			c-1.923,0-3.485-1.561-3.485-3.485s1.561-3.485,3.485-3.485h14.755c5.568,0,10.099,4.528,10.099,10.096v15.944
			C100,85.227,95.467,89.755,89.901,89.755z"/>
	</g>
</g>
<g id="Capa_1">
</g>
</svg>
