<?xml version="1.0" encoding="iso-8859-1"?>
<!-- Generator: Adobe Illustrator 22.1.0, SVG Export Plug-In . SVG Version: 6.00 Build 0)  -->
<svg version="1.1" xmlns="http://www.w3.org/2000/svg" xmlns:xlink="http://www.w3.org/1999/xlink" x="0px" y="0px"
	 viewBox="0 0 100 100" style="enable-background:new 0 0 100 100;" xml:space="preserve">
<g id="Archivo">
	<g>
		<path style="fill:#575757;" d="M88.884,26.617L63.113,1.101C62.401,0.396,61.438,0,60.437,0H23.782
			C16.176,0,9.989,6.187,9.989,13.791v72.416C9.988,93.813,16.176,100,23.782,100h52.437c7.605,0,13.792-6.187,13.792-13.791V29.322
			C90.012,28.305,89.607,27.333,88.884,26.617z M64.312,12.996l12.855,12.729H64.312V12.996z M76.218,92.391H23.782
			c-3.41,0-6.184-2.774-6.184-6.183V13.791c0-3.41,2.775-6.183,6.184-6.183h32.922v21.921c0,2.101,1.703,3.804,3.804,3.804h21.896
			v52.875C82.403,89.617,79.628,92.391,76.218,92.391z"/>
		<path style="fill:#575757;" d="M68.372,47.625h-39c-1.864,0-3.375-1.511-3.375-3.375v0c0-1.864,1.511-3.375,3.375-3.375h39
			c1.864,0,3.375,1.511,3.375,3.375v0C71.747,46.114,70.236,47.625,68.372,47.625z"/>
		<path style="fill:#575757;" d="M68.372,61.688h-39c-1.864,0-3.375-1.511-3.375-3.375v0c0-1.864,1.511-3.375,3.375-3.375h39
			c1.864,0,3.375,1.511,3.375,3.375v0C71.747,60.176,70.236,61.688,68.372,61.688z"/>
		<path style="fill:#575757;" d="M51.042,75.75h-21.67c-1.864,0-3.375-1.511-3.375-3.375l0,0c0-1.864,1.511-3.375,3.375-3.375h21.67
			c1.864,0,3.375,1.511,3.375,3.375l0,0C54.417,74.239,52.906,75.75,51.042,75.75z"/>
	</g>
</g>
<g id="Capa_1">
</g>
</svg>
