<?xml version="1.0" encoding="iso-8859-1"?>
<!-- Generator: Adobe Illustrator 22.1.0, SVG Export Plug-In . SVG Version: 6.00 Build 0)  -->
<svg version="1.1" xmlns="http://www.w3.org/2000/svg" xmlns:xlink="http://www.w3.org/1999/xlink" x="0px" y="0px"
	 viewBox="0 0 100 100" style="enable-background:new 0 0 100 100;" xml:space="preserve">
<g id="icoAgregar">
	<g>
		<path style="fill:#575757;" d="M7.692,0h84.615C96.556,0,100,3.444,100,7.692c0,0,0,0,0,0v84.615c0,4.248-3.444,7.692-7.692,7.692
			h0H7.692C3.444,100,0,96.556,0,92.308l0,0V7.692C0,3.444,3.444,0,7.692,0z M7.692,7.692v84.615h84.615V7.692H7.692z
			 M46.154,46.154V26.923c0-2.124,1.722-3.846,3.846-3.846c2.124,0,3.846,1.722,3.846,3.846v19.231h19.231
			c2.124,0,3.846,1.722,3.846,3.846c0,2.124-1.722,3.846-3.846,3.846H53.846v19.231c0,2.124-1.722,3.846-3.846,3.846
			c-2.124,0-3.846-1.722-3.846-3.846V53.846H26.923c-2.124,0-3.846-1.722-3.846-3.846c0-2.124,1.722-3.846,3.846-3.846H46.154z"/>
	</g>
</g>
<g id="Capa_1">
</g>
</svg>
