<svg xmlns="http://www.w3.org/2000/svg" viewBox="0 0 102.26 82"><defs><style>.cls-1{fill:#343434;stroke:#9b9c9c;opacity:0;}.cls-1,.cls-2{stroke-miterlimit:10;}.cls-2{fill:#353535;stroke:#353535;}</style></defs><title>icoArco1_over</title><g id="Capa_2" data-name="Capa 2"><g id="Capa_1-2" data-name="Capa 1"><rect class="cls-1" x="0.5" y="0.5" width="101.26" height="81"/><path class="cls-2" d="M52.51,9.72H38.19A2.08,2.08,0,0,0,36.1,11.8v9.11A2.09,2.09,0,0,0,38.19,23H52.51a2.09,2.09,0,0,0,2.09-2.09V11.8a2.09,2.09,0,0,0-2.09-2.09m-4.07,8H42.39c-.8,0-3.43-2.34-3.43-3.49A2.07,2.07,0,0,1,41,12.19h8.65a2.09,2.09,0,0,1,2.08,2.08c0,1.14-2.51,3.49-3.31,3.49"/><path class="cls-2" d="M54.89,29.2a1.09,1.09,0,0,1-.95,1.18H24A1.21,1.21,0,0,1,24,28h30a1.09,1.09,0,0,1,.95,1.18"/><path class="cls-2" d="M49.75,36.95a1.1,1.1,0,0,1-1,1.19H24a1.21,1.21,0,0,1,0-2.37H48.79a1.09,1.09,0,0,1,1,1.18"/><path class="cls-2" d="M44.69,44.7c0,.66-.3,1.18-.68,1.18H23.68c-.37,0-.67-.52-.67-1.18s.3-1.18.67-1.18H44c.38,0,.68.53.68,1.18"/><path class="cls-2" d="M45.67,60.19a4.1,4.1,0,0,1-4.09,4.09H27.1a4.09,4.09,0,1,1,0-8.19H41.58a4.1,4.1,0,0,1,4.09,4.09"/><path class="cls-2" d="M69.77,65.31V67.9a1,1,0,0,1-1,1H22a1,1,0,0,1-1-1V18.09a1,1,0,0,1,1-1H34.29V14.61H22a3.49,3.49,0,0,0-3.49,3.49V67.9A3.49,3.49,0,0,0,22,71.38H68.79a3.49,3.49,0,0,0,3.49-3.48V65.28c-.47,0-1,.08-1.44.08s-.71,0-1.07,0"/><path class="cls-2" d="M72.28,35.78V18.09a3.5,3.5,0,0,0-3.49-3.48H56.48v2.5H68.79a1,1,0,0,1,1,1V35.75c.36,0,.71,0,1.07,0s1,0,1.44.08"/><path class="cls-2" d="M72.28,37.69a13,13,0,0,0-1.44-.08c-.36,0-.72,0-1.07.05a12.92,12.92,0,0,0,0,25.75c.35,0,.71,0,1.07,0s1,0,1.44-.08a12.93,12.93,0,0,0,0-25.69M68.89,58.21l-.13.11,0,0a1.28,1.28,0,0,1-1.8,0l-5.47-5.46a1.28,1.28,0,0,1,1.81-1.8l4.56,4.56L78.38,45.12a1.3,1.3,0,0,1,1.81,0,1.26,1.26,0,0,1,0,1.8Z"/></g></g></svg>