<?xml version="1.0" encoding="utf-8"?>
<!-- Generator: Adobe Illustrator 22.1.0, SVG Export Plug-In . SVG Version: 6.00 Build 0)  -->
<svg version="1.1" id="Capa_1" xmlns="http://www.w3.org/2000/svg" xmlns:xlink="http://www.w3.org/1999/xlink" x="0px" y="0px"
	 viewBox="0 0 100 100" style="enable-background:new 0 0 100 100;" xml:space="preserve">
<style type="text/css">
	.st0{display:none;}
	.st1{display:inline;}
	.st2{fill:#585858;}
	.st3{display:inline;fill:#585858;}
</style>
<g class="st0">
	<g class="st1">
		<path class="st2" d="M88.2,19.5L74.3,5.6c-3-3-9-5.5-13.3-5.5H14.1C9.8,0,6.3,3.5,6.3,7.8v84.3c0,4.3,3.5,7.8,7.8,7.8h71.8
			c4.3,0,7.8-3.5,7.8-7.8V32.8C93.7,28.5,91.2,22.5,88.2,19.5L88.2,19.5z M83.8,23.9c0.3,0.3,0.6,0.7,0.9,1.1h-16v-16
			c0.4,0.3,0.8,0.6,1.1,0.9L83.8,23.9z M87.5,92.2c0,0.8-0.7,1.6-1.6,1.6H14.1c-0.8,0-1.6-0.7-1.6-1.6V7.8c0-0.8,0.7-1.6,1.6-1.6
			h46.8c0.5,0,1,0.1,1.6,0.2v24.8h24.8c0.1,0.6,0.2,1.1,0.2,1.6V92.2z M87.5,92.2"/>
	</g>
	<g class="st1">
		<path class="st2" d="M55.7,47.5H44.3c-1.6,0-2.8,1.3-2.8,2.8v22.8c0,1.6,1.3,2.8,2.8,2.8h11.4c3.1,0,5.7-2.5,5.7-5.7V53.2
			C61.4,50,58.8,47.5,55.7,47.5z M55.7,70.2h-8.5V53.2h8.5V70.2z"/>
		<path class="st2" d="M81.3,53.2v-5.7H67.1c-1.6,0-2.8,1.3-2.8,2.8v25.6h5.7V64.5h11.4v-5.7H69.9v-5.7H81.3z"/>
		<path class="st2" d="M32.9,47.5H21.5c-1.6,0-2.8,1.3-2.8,2.8v25.6h5.7v-8.5h8.5c3.1,0,5.7-2.5,5.7-5.7v-8.5
			C38.6,50,36.1,47.5,32.9,47.5z M32.9,61.7h-8.5v-8.5h8.5V61.7z"/>
	</g>
</g>
<g class="st0">
	<g class="st1">
		<path class="st2" d="M88.2,19.5L74.3,5.6c-3-3-9-5.5-13.3-5.5H14.1C9.8,0,6.3,3.5,6.3,7.8v84.3c0,4.3,3.5,7.8,7.8,7.8h71.8
			c4.3,0,7.8-3.5,7.8-7.8V32.8C93.7,28.5,91.2,22.5,88.2,19.5L88.2,19.5z M83.8,23.9c0.3,0.3,0.6,0.7,0.9,1.1h-16v-16
			c0.4,0.3,0.8,0.6,1.1,0.9L83.8,23.9z M87.5,92.2c0,0.8-0.7,1.6-1.6,1.6H14.1c-0.8,0-1.6-0.7-1.6-1.6V7.8c0-0.8,0.7-1.6,1.6-1.6
			h46.8c0.5,0,1,0.1,1.6,0.2v24.8h24.8c0.1,0.6,0.2,1.1,0.2,1.6V92.2z M87.5,92.2"/>
	</g>
	<polygon class="st3" points="58.4,48.4 61.3,48.4 57.9,63.2 53.6,42.4 46.6,42.4 41.6,63.2 37.8,42.4 30.5,42.4 37.9,75.9 45,75.9 
		50,56.1 54.5,75.9 61,75.9 69.5,42.4 58.4,42.4 58.4,48.4 	"/>
</g>
<g class="st0">
	<g class="st1">
		<path class="st2" d="M88.2,19.5L74.3,5.6c-3-3-9-5.5-13.3-5.5H14.1C9.8,0,6.3,3.5,6.3,7.8v84.3c0,4.3,3.5,7.8,7.8,7.8h71.8
			c4.3,0,7.8-3.5,7.8-7.8V32.8C93.7,28.5,91.2,22.5,88.2,19.5L88.2,19.5z M83.8,23.9c0.3,0.3,0.6,0.7,0.9,1.1h-16v-16
			c0.4,0.3,0.8,0.6,1.1,0.9L83.8,23.9z M87.5,92.2c0,0.8-0.7,1.6-1.6,1.6H14.1c-0.8,0-1.6-0.7-1.6-1.6V7.8c0-0.8,0.7-1.6,1.6-1.6
			h46.8c0.5,0,1,0.1,1.6,0.2v24.8h24.8c0.1,0.6,0.2,1.1,0.2,1.6V92.2z M87.5,92.2"/>
	</g>
	<g class="st1">
		<path class="st2" d="M29.9,47.2H18.4c-1.6,0-2.9,1.3-2.9,2.9v25.8h5.7v-8.6h8.6c3.2,0,5.7-2.6,5.7-5.7V53
			C35.7,49.8,33.1,47.2,29.9,47.2z M29.9,61.6h-8.6V53h8.6V61.6z"/>
		<path class="st2" d="M52.9,47.2H41.4c-1.6,0-2.9,1.3-2.9,2.9v25.8h5.7v-8.6h8.6c3.2,0,5.7-2.6,5.7-5.7V53
			C58.6,49.8,56,47.2,52.9,47.2z M52.9,61.6h-8.6V53h8.6V61.6z"/>
		<polygon class="st2" points="61.5,47.2 61.5,53 70.1,53 70.1,75.9 75.8,75.9 75.8,53 84.4,53 84.4,47.2 		"/>
	</g>
</g>
<g class="st0">
	<path class="st3" d="M88.2,19.5L74.3,5.6c-3-3-9-5.5-13.3-5.5H14.1C9.8,0,6.3,3.5,6.3,7.8v84.3c0,4.3,3.5,7.8,7.8,7.8h71.8
		c4.3,0,7.8-3.5,7.8-7.8V32.8C93.7,28.5,91.2,22.5,88.2,19.5L88.2,19.5z M83.8,23.9c0.3,0.3,0.6,0.7,0.9,1.1h-16v-16
		c0.4,0.3,0.8,0.6,1.1,0.9L83.8,23.9z M87.5,92.2c0,0.8-0.7,1.6-1.6,1.6H14.1c-0.8,0-1.6-0.7-1.6-1.6V7.8c0-0.8,0.7-1.6,1.6-1.6
		h46.8c0.5,0,1,0.1,1.6,0.2v24.8h24.8c0.1,0.6,0.2,1.1,0.2,1.6V92.2z M87.5,92.2"/>
	<polygon class="st3" points="65.9,40.6 56.6,40.6 50,50.3 43.4,40.6 34.1,40.6 45.3,57.3 32.6,75.9 50.7,75.9 50.7,69.6 46.5,69.6 
		50,64.4 57.7,75.9 67.4,75.9 54.7,57.3 	"/>
</g>
<g class="st0">
	<g class="st1">
		<path class="st2" d="M88.2,19.5L74.3,5.6c-3-3-9-5.5-13.3-5.5H14.1C9.8,0,6.3,3.5,6.3,7.8v84.3c0,4.3,3.5,7.8,7.8,7.8h71.8
			c4.3,0,7.8-3.5,7.8-7.8V32.8C93.7,28.5,91.2,22.5,88.2,19.5L88.2,19.5z M83.8,23.9c0.3,0.3,0.6,0.7,0.9,1.1h-16v-16
			c0.4,0.3,0.8,0.6,1.1,0.9L83.8,23.9z M87.5,92.2c0,0.8-0.7,1.6-1.6,1.6H14.1c-0.8,0-1.6-0.7-1.6-1.6V7.8c0-0.8,0.7-1.6,1.6-1.6
			h46.8c0.5,0,1,0.1,1.6,0.2v24.8h24.8c0.1,0.6,0.2,1.1,0.2,1.6V92.2z M87.5,92.2"/>
	</g>
	<g class="st1">
		<path class="st2" d="M15.4,54h8.1v22H29V54h8.1v-4.7H15.4V54z M15.4,54"/>
		<path class="st2" d="M61.3,49.2h-6.4L50,57.9l-4.8-8.6h-6.7l8.1,13l-8.6,13.6h6.5l5.4-9.1l5.1,9.1h6.8l-8.7-13.9L61.3,49.2z
			 M61.3,49.2"/>
		<path class="st2" d="M62.9,49.2V54H71v22h5.6V54h8.1v-4.7H62.9z M62.9,49.2"/>
	</g>
</g>
<g>
	<g>
		<path class="st2" d="M88.2,19.5L74.3,5.6c-3-3-9-5.5-13.3-5.5H14.1C9.8,0,6.3,3.5,6.3,7.8v84.3c0,4.3,3.5,7.8,7.8,7.8h71.8
			c4.3,0,7.8-3.5,7.8-7.8V32.8C93.7,28.5,91.2,22.5,88.2,19.5L88.2,19.5z M83.8,23.9c0.3,0.3,0.6,0.7,0.9,1.1h-16v-16
			c0.4,0.3,0.8,0.6,1.1,0.9L83.8,23.9z M87.5,92.2c0,0.8-0.7,1.6-1.6,1.6H14.1c-0.8,0-1.6-0.7-1.6-1.6V7.8c0-0.8,0.7-1.6,1.6-1.6
			h46.8c0.5,0,1,0.1,1.6,0.2v24.8h24.8c0.1,0.6,0.2,1.1,0.2,1.6V92.2z M87.5,92.2"/>
	</g>
	<g>
		<path class="st2" d="M70.7,47.8H29.3c-2,0-3.6-1.6-3.6-3.6l0,0c0-2,1.6-3.6,3.6-3.6h41.4c2,0,3.6,1.6,3.6,3.6l0,0
			C74.3,46.2,72.7,47.8,70.7,47.8z"/>
		<path class="st2" d="M70.7,62.8H29.3c-2,0-3.6-1.6-3.6-3.6l0,0c0-2,1.6-3.6,3.6-3.6h41.4c2,0,3.6,1.6,3.6,3.6l0,0
			C74.3,61.1,72.7,62.8,70.7,62.8z"/>
		<path class="st2" d="M52.3,77.7h-23c-2,0-3.6-1.6-3.6-3.6l0,0c0-2,1.6-3.6,3.6-3.6h23c2,0,3.6,1.6,3.6,3.6l0,0
			C55.9,76.1,54.3,77.7,52.3,77.7z"/>
	</g>
</g>
</svg>
