<?xml version="1.0" encoding="iso-8859-1"?>
<!-- Generator: Adobe Illustrator 22.1.0, SVG Export Plug-In . SVG Version: 6.00 Build 0)  -->
<svg version="1.1" xmlns="http://www.w3.org/2000/svg" xmlns:xlink="http://www.w3.org/1999/xlink" x="0px" y="0px"
	 viewBox="0 0 100 100" style="enable-background:new 0 0 100 100;" xml:space="preserve">
<g id="icoDescarga">
	<g>
		<path style="fill:#575757;" d="M49.913,72.142h-0.005c-1.021,0-1.992-0.454-2.654-1.23l-24.95-29.419
			c-0.875-1.035-1.075-2.486-0.503-3.72c0.571-1.23,1.806-2.02,3.162-2.02h10.745V13.729c0-1.923,1.561-3.485,3.485-3.485h21.615
			c1.923,0,3.485,1.561,3.485,3.485v22.024h10.745c1.361,0,2.596,0.79,3.162,2.024c0.571,1.239,0.372,2.69-0.513,3.725
			L52.563,70.921C51.9,71.697,50.933,72.142,49.913,72.142z M32.485,42.723L49.922,63.28l17.555-20.558h-6.67
			c-1.923,0-3.485-1.561-3.485-3.485V17.214H42.676v22.024c0,1.923-1.561,3.485-3.485,3.485H32.485z"/>
		<path style="fill:#575757;" d="M89.901,89.755H10.096C4.528,89.755,0,85.227,0,79.659V63.715c0-5.568,4.528-10.096,10.096-10.096
			h14.787c1.923,0,3.485,1.561,3.485,3.485s-1.561,3.485-3.485,3.485H10.096c-1.724,0-3.127,1.402-3.127,3.127v15.944
			c0,1.724,1.402,3.127,3.127,3.127h79.805c1.724,0,3.13-1.402,3.13-3.127V63.715c0-1.724-1.406-3.127-3.13-3.127H75.146
			c-1.923,0-3.485-1.561-3.485-3.485s1.561-3.485,3.485-3.485h14.755c5.568,0,10.099,4.528,10.099,10.096v15.944
			C100,85.227,95.467,89.755,89.901,89.755z"/>
	</g>
</g>
<g id="Capa_1">
</g>
</svg>
