<?xml version="1.0" encoding="utf-8"?>
<!-- Generator: Adobe Illustrator 22.1.0, SVG Export Plug-In . SVG Version: 6.00 Build 0)  -->
<svg version="1.1" id="Capa_1" xmlns:sketch="http://www.bohemiancoding.com/sketch/ns"
	 xmlns="http://www.w3.org/2000/svg" xmlns:xlink="http://www.w3.org/1999/xlink" x="0px" y="0px" viewBox="0 0 22.7 20"
	 style="enable-background:new 0 0 22.7 20;" xml:space="preserve">
<style type="text/css">
	.st0{fill:#333333;}
</style>
<title></title>
<desc></desc>
<g id="Page-1">
	<g id="icon-92-inbox-download">
		<path id="inbox-download" class="st0" d="M10.9,10L8,7L7.3,7.7l4.1,4.1l4.1-4.1L14.8,7l-3,3V0h-0.9V10L10.9,10z M12.7,5.5h4.9
			l4,6.4h-6.2v1.8c0,1-0.8,1.8-1.8,1.8H9.1c-1,0-1.8-0.8-1.8-1.8v-1.8H1.1l0,0l4-6.4H10V4.5H4.5L0,11.8v0.5V20h22.7v-7.7v-0.5
			l-4.5-7.3h-5.5V5.5L12.7,5.5L12.7,5.5z M16.4,12.7h5.5v6.4H0.9v-6.4h5.5v1.4c0,1.3,1,2.3,2.3,2.3h5.5c1.3,0,2.3-1,2.3-2.3V12.7
			L16.4,12.7L16.4,12.7z"/>
	</g>
</g>
</svg>
