<?xml version="1.0" encoding="utf-8"?>
<!-- Generator: Adobe Illustrator 22.1.0, SVG Export Plug-In . SVG Version: 6.00 Build 0)  -->
<svg version="1.1" xmlns="http://www.w3.org/2000/svg" xmlns:xlink="http://www.w3.org/1999/xlink" x="0px" y="0px"
	 viewBox="0 0 15 15" style="enable-background:new 0 0 15 15;" xml:space="preserve">
<style type="text/css">
	.st0{display:none;}
	.st1{display:inline;fill:#0A6142;}
	.st2{display:inline;fill:none;}
	.st3{display:inline;fill:#A3A3A3;}
	.st4{fill:#529680;}
	.st5{fill:#FFFFFF;}
	.st6{display:inline;fill:#BF0811;}
</style>
<g id="Capa_2" class="st0">
	<circle class="st1" cx="7.5" cy="7.5" r="3.6"/>
</g>
<g id="Capa_3" class="st0">
	
		<image style="display:inline;overflow:visible;" width="24" height="24" xlink:href="4E01DF56.jpg"  transform="matrix(0.625 0 0 0.625 0 0)">
	</image>
</g>
<g id="Capa_1" class="st0">
	<path class="st2" d="M7.5,8.8c2,0,3.7,1.2,4.4,3c1.1-1.1,1.8-2.7,1.8-4.3c0-3.4-2.8-6.2-6.2-6.2c-3.4,0-6.2,2.8-6.2,6.2
		c0,1.7,0.7,3.2,1.8,4.3C3.8,10.1,5.5,8.8,7.5,8.8z M7.5,3.2c1.4,0,2.5,1.1,2.5,2.5C10,7,8.9,8.1,7.5,8.1C6.1,8.1,5,7,5,5.6
		C5,4.3,6.1,3.2,7.5,3.2z"/>
	<path class="st2" d="M7.5,10c-1.7,0-3.1,1.1-3.6,2.7c1,0.7,2.2,1.1,3.6,1.1c1.3,0,2.5-0.4,3.6-1.1C10.6,11.2,9.2,10,7.5,10z"/>
	<path class="st2" d="M7.5,7c0.7,0,1.3-0.6,1.3-1.3c0-0.7-0.6-1.3-1.3-1.3S6.2,4.9,6.2,5.6C6.2,6.4,6.8,7,7.5,7z"/>
	<path class="st3" d="M7.5,8.1C8.9,8.1,10,7,10,5.6c0-1.4-1.1-2.5-2.5-2.5C6.1,3.2,5,4.3,5,5.6C5,7,6.1,8.1,7.5,8.1z M7.5,4.3
		c0.7,0,1.3,0.6,1.3,1.3C8.8,6.4,8.2,7,7.5,7S6.2,6.4,6.2,5.6C6.2,4.9,6.8,4.3,7.5,4.3z"/>
	<path class="st3" d="M7.5,0.2c-4,0-7.3,3.3-7.3,7.3c0,2.2,1,4.3,2.6,5.6c0.2,0.2,0.5,0.4,0.7,0.5c1.2,0.8,2.5,1.2,4,1.2
		c1.5,0,2.9-0.4,4-1.2c0.3-0.2,0.5-0.3,0.7-0.5c1.6-1.3,2.6-3.4,2.6-5.6C14.8,3.5,11.5,0.2,7.5,0.2z M7.5,13.7
		c-1.3,0-2.5-0.4-3.5-1.1C4.4,11.1,5.8,10,7.5,10c1.7,0,3.1,1.1,3.5,2.6C10,13.3,8.8,13.7,7.5,13.7z M11.9,11.8
		c-0.7-1.8-2.4-3-4.4-3c-2,0-3.7,1.2-4.4,3C2,10.7,1.3,9.2,1.3,7.5c0-3.4,2.8-6.2,6.2-6.2c3.4,0,6.2,2.8,6.2,6.2
		C13.7,9.2,13,10.7,11.9,11.8z"/>
</g>
<g id="Capa_4">
	<g>
		<path class="st4" d="M7.5,0.2c-4,0-7.3,3.3-7.3,7.3c0,2.2,1,4.3,2.6,5.6c0.2,0.2,0.5,0.4,0.7,0.5c1.2,0.8,2.5,1.2,4,1.2
			c1.5,0,2.9-0.4,4-1.2c0.3-0.2,0.5-0.3,0.7-0.5c1.6-1.3,2.6-3.4,2.6-5.6C14.8,3.5,11.5,0.2,7.5,0.2z"/>
		<g>
			<g>
				<path class="st5" d="M3.1,9c0.7,0.6,1.4,1.3,2.1,1.9c0.3,0.3,0.8,0.3,1.1,0C8.1,9,10,7.1,11.9,5.2c0.7-0.7-0.4-1.7-1.1-1.1
					C9,6,7.1,7.9,5.2,9.8c0.4,0,0.7,0,1.1,0C5.5,9.2,4.8,8.5,4.1,7.9C3.4,7.2,2.4,8.3,3.1,9L3.1,9z"/>
			</g>
		</g>
	</g>
</g>
<g id="Capa_5" class="st0">
	<path class="st6" d="M7.5,0.2c-4,0-7.3,3.3-7.3,7.3c0,2.2,1,4.3,2.6,5.6c0.2,0.2,0.5,0.4,0.7,0.5c1.2,0.8,2.5,1.2,4,1.2
		c1.5,0,2.9-0.4,4-1.2c0.3-0.2,0.5-0.3,0.7-0.5c1.6-1.3,2.6-3.4,2.6-5.6C14.8,3.5,11.5,0.2,7.5,0.2z"/>
</g>
</svg>
