<?xml version="1.0" encoding="iso-8859-1"?>
<!-- Generator: Adobe Illustrator 22.1.0, SVG Export Plug-In . SVG Version: 6.00 Build 0)  -->
<svg version="1.1" xmlns="http://www.w3.org/2000/svg" xmlns:xlink="http://www.w3.org/1999/xlink" x="0px" y="0px"
	 viewBox="0 0 100 100" style="enable-background:new 0 0 100 100;" xml:space="preserve">
<g id="icoEditar">
	<g>
		<path style="fill:#575757;" d="M37.394,18.529c2.038,0.072,3.747-1.522,3.819-3.56c0.003-0.086,0.003-0.173,0-0.259
			c0-2.109-1.71-3.819-3.819-3.819H3.914c-2.109,0-3.819,1.71-3.819,3.819v81.471c0,2.109,1.71,3.819,3.819,3.819h81.344
			c2.109,0,3.819-1.71,3.819-3.819V57.864c0.072-2.038-1.522-3.747-3.56-3.819c-0.086-0.003-0.173-0.003-0.259,0
			c-2.109,0-3.819,1.71-3.819,3.819v34.498H7.733V18.529L37.394,18.529z"/>
		<path style="fill:#575757;" d="M95.315,4.526c-6.101-6.035-15.922-6.035-22.023,0l-37.68,37.935
			c-0.501,0.486-0.854,1.104-1.018,1.782l-5.601,22.15c-0.253,1.322,0.123,2.686,1.018,3.692c0.744,0.739,1.752,1.151,2.801,1.146
			h0.891l22.15-5.728c0.66-0.14,1.274-0.447,1.782-0.891l37.808-38.062C101.442,20.413,101.385,10.592,95.315,4.526z M53.052,58.246
			L38.03,62.065l3.692-15.021l30.424-30.552l11.33,11.202L53.052,58.246z M89.968,21.202l-1.146,1.146L77.62,11.146L78.766,10
			c2.97-3.093,7.886-3.193,10.979-0.223c0.076,0.073,0.15,0.147,0.223,0.223c1.515,1.463,2.347,3.495,2.291,5.601
			C92.27,17.698,91.446,19.714,89.968,21.202z"/>
	</g>
</g>
<g id="Capa_1">
</g>
</svg>
