<?xml version="1.0" encoding="utf-8"?>
<!-- Generator: Adobe Illustrator 22.1.0, SVG Export Plug-In . SVG Version: 6.00 Build 0)  -->
<svg version="1.1" xmlns="http://www.w3.org/2000/svg" xmlns:xlink="http://www.w3.org/1999/xlink" x="0px" y="0px"
	 viewBox="0 0 33 33" style="enable-background:new 0 0 33 33;" xml:space="preserve">
<style type="text/css">
	.st0{display:none;}
	.st1{display:inline;fill:#0A6142;}
	.st2{display:inline;fill:none;}
	.st3{display:inline;fill:#A3A3A3;}
	.st4{display:inline;fill:#529680;}
	.st5{display:inline;}
	.st6{fill:#FFFFFF;}
	.st7{fill:none;stroke:#A3A3A3;stroke-width:0.75;stroke-miterlimit:10;}
	.st8{display:inline;fill:#BF0811;}
</style>
<g id="Capa_2" class="st0">
	<circle class="st1" cx="16.5" cy="16.5" r="3.6"/>
</g>
<g id="Capa_3" class="st0">
	
		<image style="display:inline;overflow:visible;" width="24" height="24" xlink:href="CF771242.jpg"  transform="matrix(0.625 0 0 0.625 9 9)">
	</image>
</g>
<g id="Capa_1" class="st0">
	<path class="st2" d="M16.5,17.8c2,0,3.7,1.2,4.4,3c1.1-1.1,1.8-2.7,1.8-4.3c0-3.4-2.8-6.2-6.2-6.2c-3.4,0-6.2,2.8-6.2,6.2
		c0,1.7,0.7,3.2,1.8,4.3C12.8,19.1,14.5,17.8,16.5,17.8z M16.5,12.2c1.4,0,2.5,1.1,2.5,2.5c0,1.4-1.1,2.5-2.5,2.5
		c-1.4,0-2.5-1.1-2.5-2.5C14,13.3,15.1,12.2,16.5,12.2z"/>
	<path class="st2" d="M16.5,19c-1.7,0-3.1,1.1-3.6,2.7c1,0.7,2.2,1.1,3.6,1.1c1.3,0,2.5-0.4,3.6-1.1C19.6,20.2,18.2,19,16.5,19z"/>
	<path class="st2" d="M16.5,16c0.7,0,1.3-0.6,1.3-1.3c0-0.7-0.6-1.3-1.3-1.3s-1.3,0.6-1.3,1.3C15.2,15.4,15.8,16,16.5,16z"/>
	<path class="st3" d="M16.5,17.1c1.4,0,2.5-1.1,2.5-2.5c0-1.4-1.1-2.5-2.5-2.5c-1.4,0-2.5,1.1-2.5,2.5C14,16,15.1,17.1,16.5,17.1z
		 M16.5,13.3c0.7,0,1.3,0.6,1.3,1.3c0,0.7-0.6,1.3-1.3,1.3s-1.3-0.6-1.3-1.3C15.2,13.9,15.8,13.3,16.5,13.3z"/>
	<path class="st3" d="M16.5,9.2c-4,0-7.3,3.3-7.3,7.3c0,2.2,1,4.3,2.6,5.6c0.2,0.2,0.5,0.4,0.7,0.5c1.2,0.8,2.5,1.2,4,1.2
		c1.5,0,2.9-0.4,4-1.2c0.3-0.2,0.5-0.3,0.7-0.5c1.6-1.3,2.6-3.4,2.6-5.6C23.8,12.5,20.5,9.2,16.5,9.2z M16.5,22.7
		c-1.3,0-2.5-0.4-3.5-1.1c0.4-1.5,1.8-2.6,3.5-2.6c1.7,0,3.1,1.1,3.5,2.6C19,22.3,17.8,22.7,16.5,22.7z M20.9,20.8
		c-0.7-1.8-2.4-3-4.4-3c-2,0-3.7,1.2-4.4,3c-1.1-1.1-1.8-2.7-1.8-4.3c0-3.4,2.8-6.2,6.2-6.2c3.4,0,6.2,2.8,6.2,6.2
		C22.7,18.2,22,19.7,20.9,20.8z"/>
</g>
<g id="Capa_4">
	<g class="st0">
		<path class="st4" d="M16.5,9.2c-4,0-7.3,3.3-7.3,7.3c0,2.2,1,4.3,2.6,5.6c0.2,0.2,0.5,0.4,0.7,0.5c1.2,0.8,2.5,1.2,4,1.2
			c1.5,0,2.9-0.4,4-1.2c0.3-0.2,0.5-0.3,0.7-0.5c1.6-1.3,2.6-3.4,2.6-5.6C23.8,12.5,20.5,9.2,16.5,9.2z"/>
		<g class="st5">
			<g>
				<path class="st6" d="M12.1,18c0.7,0.6,1.4,1.3,2.1,1.9c0.3,0.3,0.8,0.3,1.1,0c1.9-1.9,3.8-3.8,5.7-5.8c0.7-0.7-0.4-1.7-1.1-1.1
					c-1.9,1.9-3.8,3.8-5.7,5.7c0.4,0,0.7,0,1.1,0c-0.7-0.6-1.4-1.3-2.1-1.9C12.4,16.2,11.4,17.3,12.1,18L12.1,18z"/>
			</g>
		</g>
	</g>
	<g>
		<path class="st7" d="M16.5,2.7C8.9,2.7,2.7,8.9,2.7,16.5c0,4.2,1.9,8,4.9,10.6c0.4,0.4,0.9,0.7,1.4,1c2.2,1.4,4.8,2.3,7.6,2.3
			c2.8,0,5.4-0.8,7.6-2.3c0.5-0.3,0.9-0.6,1.4-1c3-2.5,4.9-6.3,4.9-10.6C30.3,8.9,24.1,2.7,16.5,2.7z"/>
	</g>
	<line class="st7" x1="16.5" y1="0" x2="16.5" y2="5.3"/>
	<line class="st7" x1="16.5" y1="27.7" x2="16.5" y2="33"/>
	<line class="st7" x1="33" y1="16.5" x2="27.7" y2="16.5"/>
	<line class="st7" x1="5.3" y1="16.5" x2="0" y2="16.5"/>
</g>
<g id="Capa_5" class="st0">
	<path class="st8" d="M16.5,9.2c-4,0-7.3,3.3-7.3,7.3c0,2.2,1,4.3,2.6,5.6c0.2,0.2,0.5,0.4,0.7,0.5c1.2,0.8,2.5,1.2,4,1.2
		c1.5,0,2.9-0.4,4-1.2c0.3-0.2,0.5-0.3,0.7-0.5c1.6-1.3,2.6-3.4,2.6-5.6C23.8,12.5,20.5,9.2,16.5,9.2z"/>
</g>
</svg>
