<?xml version="1.0" encoding="iso-8859-1"?>
<!-- Generator: Adobe Illustrator 22.1.0, SVG Export Plug-In . SVG Version: 6.00 Build 0)  -->
<svg version="1.1" id="Capa_1" xmlns="http://www.w3.org/2000/svg" xmlns:xlink="http://www.w3.org/1999/xlink" x="0px" y="0px"
	 viewBox="0 0 100 100" style="enable-background:new 0 0 100 100;" xml:space="preserve">
<g id="icoGuardar">
	<path style="fill:#575757;" d="M98.922,26.661L73.339,1.078C72.631,0.372,71.667-0.017,70.667,0H3.691C1.652,0.001,0,1.653,0,3.691
		v92.618C0,98.348,1.652,100,3.691,100h92.618c2.038,0,3.691-1.652,3.691-3.691V29.333C100.017,28.333,99.628,27.369,98.922,26.661z
		 M58.163,7.382v17.242h-26.35V7.382H58.163z M24.432,7.382v17.242h-4.945V7.382H24.432z M92.618,92.619H7.381V7.382h4.739v20.933
		c0,2.038,1.652,3.691,3.691,3.691H61.81c2.038,0,3.691-1.652,3.691-3.691V7.382h3.691L92.62,30.81v61.809H92.618z"/>
</g>
<g id="Capa_1_1_">
</g>
<g>
	<g>
		<path style="fill:none;" d="M50,52.334c-2.849,0-5.167,2.317-5.167,5.166s2.318,5.167,5.167,5.167s5.167-2.318,5.167-5.167
			S52.849,52.334,50,52.334z"/>
		<path style="fill:#575757;" d="M50,44.333c-7.26,0-13.167,5.907-13.167,13.167c0,7.261,5.906,13.167,13.167,13.167
			c7.261,0,13.167-5.906,13.167-13.167C63.167,50.24,57.261,44.333,50,44.333z M50,62.667c-2.849,0-5.167-2.318-5.167-5.167
			s2.318-5.166,5.167-5.166s5.167,2.317,5.167,5.166S52.849,62.667,50,62.667z"/>
	</g>
</g>
</svg>
