<?xml version="1.0" encoding="iso-8859-1"?>
<!-- Generator: Adobe Illustrator 22.1.0, SVG Export Plug-In . SVG Version: 6.00 Build 0)  -->
<svg version="1.1" xmlns="http://www.w3.org/2000/svg" xmlns:xlink="http://www.w3.org/1999/xlink" x="0px" y="0px"
	 viewBox="0 0 100 100" style="enable-background:new 0 0 100 100;" xml:space="preserve">
<g id="icoLimpiar">
	<g transform="translate(-900.000000, -923.000000)">
		<g transform="translate(900.000000, 923.000000)">
			<path style="fill:#575757;" d="M61.688,70.928l30.641-30.641c0.698-0.698,0.698-1.829,0-2.527L67.058,12.489
				c-0.698-0.698-1.829-0.698-2.527,0L33.89,43.13L61.688,70.928z M56.634,75.982L28.836,48.184L7.671,69.349
				c-0.698,0.698-0.698,1.829,0,2.527l15.636,15.636c0.335,0.335,0.79,0.523,1.264,0.523h19.271c0.474,0,0.928-0.188,1.264-0.523
				L56.634,75.982z M43.841,95.182H24.57c-2.37,0-4.642-0.941-6.318-2.617L2.617,76.93c-3.489-3.489-3.489-9.146,0-12.635
				l56.86-56.86c3.489-3.489,9.146-3.489,12.635,0l25.271,25.271c3.489,3.489,3.489,9.146,0,12.635L50.159,92.565
				C48.483,94.241,46.211,95.182,43.841,95.182z"/>
		</g>
	</g>
</g>
<g id="Capa_1">
</g>
</svg>
