<?xml version="1.0" encoding="iso-8859-1"?>
<!-- Generator: Adobe Illustrator 22.1.0, SVG Export Plug-In . SVG Version: 6.00 Build 0)  -->
<svg version="1.1" xmlns="http://www.w3.org/2000/svg" xmlns:xlink="http://www.w3.org/1999/xlink" x="0px" y="0px"
	 viewBox="0 0 100 100" style="enable-background:new 0 0 100 100;" xml:space="preserve">
<g id="icoImprimir1">
	<g>
		<path style="fill:#575757;" d="M96.429,21.429H85.714V7.143C85.714,3.205,82.513,0,78.571,0H21.429
			c-3.938,0-7.143,3.205-7.143,7.143v14.286H3.571C1.597,21.429,0,23.026,0,25v50c0,1.974,1.597,3.571,3.571,3.571h10.714v17.857
			c0,1.974,1.597,3.571,3.571,3.571h64.286c1.974,0,3.571-1.597,3.571-3.571V78.571h10.714c1.974,0,3.571-1.597,3.571-3.571V25
			C100,23.026,98.403,21.429,96.429,21.429z M21.429,7.143h57.143v14.286H21.429V7.143z M78.571,92.857H21.429V57.143h57.143V92.857
			z M92.857,71.429h-7.143V53.571c0-1.974-1.597-3.571-3.571-3.571H17.857c-1.974,0-3.571,1.597-3.571,3.571v17.857H7.143V28.571
			h85.714V71.429z"/>
		<rect x="28.571" y="64.286" style="fill:#575757;" width="42.857" height="7.143"/>
		<rect x="28.571" y="78.571" style="fill:#575757;" width="21.429" height="7.143"/>
		<rect x="71.429" y="35.714" style="fill:#575757;" width="14.286" height="7.143"/>
	</g>
</g>
<g id="Capa_1">
</g>
</svg>
