<?xml version="1.0" encoding="utf-8"?>
<!-- Generator: Adobe Illustrator 22.1.0, SVG Export Plug-In . SVG Version: 6.00 Build 0)  -->
<svg version="1.1" id="Capa_1" xmlns="http://www.w3.org/2000/svg" xmlns:xlink="http://www.w3.org/1999/xlink" x="0px" y="0px"
	 viewBox="0 0 30 30" style="enable-background:new 0 0 30 30;" xml:space="preserve">
<style type="text/css">
	.st0{fill:#A3A3A3;}
</style>
<g id="_x36_3b3fce5-61eb-4982-a878-d39d11856621">
	<g>
		<path class="st0" d="M19,25.5c-4.8,0-9.1-6.5-9.3-6.8s-5.9-8.2-2-12.6c0.9-0.9,2-1.5,3.3-1.7h0.1c0.8,0,1.5,0.5,1.9,1.3l1.7,4.2
			c0.2,0.7,0.2,2-0.9,2.6c-0.2,0.1-0.6,0.2-0.9,0.3c-0.4,0.1-1,0.3-1.6,0.3c0.5,1.4,1.1,2.5,1.8,3.4c0.7,1.1,1.6,2.1,2.6,3.1
			c0.3-0.7,0.8-1.4,0.9-1.5s0.2-0.2,0.2-0.3c0.1-0.1,0.2-0.2,0.3-0.4c1-1,2.2-0.4,2.8,0.1l3.2,3.1c0.6,0.6,0.7,1.5,0.3,2.2
			c-0.5,1.1-1.4,1.9-2.7,2.3C20.2,25.4,19.6,25.5,19,25.5z"/>
	</g>
</g>
</svg>
