<svg id="43f244ec-775b-4e96-a638-09c04e1b8db4" data-name="Capa 1" xmlns="http://www.w3.org/2000/svg" xmlns:xlink="http://www.w3.org/1999/xlink" viewBox="0 0 707.88 444.6"><defs><style>.\34 bbd24ba-d578-4860-9564-dc55d7387f15{fill:none;}.\32 79a9b0d-273c-43fe-9f0f-353fe48c576c{clip-path:url(#cb8827c9-85d7-40b4-b0f2-c5781b51fb93);}.\33 fd26df3-ebec-4021-a024-9d5238171b1c{fill:#f2f2f2;stroke:#999;stroke-miterlimit:10;stroke-width:1.7px;}.\32 07daee2-88b6-49c1-8f50-4c576d622488{clip-path:url(#5827af09-931f-4d2b-b661-09aa05f4811e);}</style><clipPath id="cb8827c9-85d7-40b4-b0f2-c5781b51fb93" transform="translate(-17.37 -62.43)"><rect class="4bbd24ba-d578-4860-9564-dc55d7387f15" x="405.07" y="52.89" width="324.49" height="380.04"/></clipPath><clipPath id="5827af09-931f-4d2b-b661-09aa05f4811e" transform="translate(-17.37 -62.43)"><rect class="4bbd24ba-d578-4860-9564-dc55d7387f15" x="13.05" y="52.89" width="324.49" height="380.04" transform="translate(350.59 485.82) rotate(-180)"/></clipPath></defs><title>imgManos</title><g class="279a9b0d-273c-43fe-9f0f-353fe48c576c"><path class="3fd26df3-ebec-4021-a024-9d5238171b1c" d="M531.94,506.18l-8.82-70.1s-2-18.26-.79-26.08-.73-22.79-14.68-38.94-40.18-42.28-43.16-57.75-7.05-33.48-15.3-42.56-12.53-18.13-17-32.58a75.34,75.34,0,0,0-13.5-17.27s-10.9-14.17,4.92-17.27,28.16,9,30.87,16.12,8.11,20,15.24,24.93,17.7,24.33,18.74,25.85,7.18,6.51,12.46.64,4.59-12.08,9.76-21.58,13.22-22.21,13.45-30.52,2.68-25,1.68-40.51-5.41-28.87-3.32-41.39S527,83.6,527,83.6s-.55-9.32,13.37-9.77,11,33.36,11,33.36,0,29.63,1.73,37.58,1.92,27.66,1.16,36S555,204.59,564,204.3s13.43-15.47,15-28,7.52-29.17,9.28-36.29,13.51-44.32,16.22-52.71,9.52-28.83,22.65-23S632.93,89,632.93,89s-11.15,42.89-15.83,58.61-14,51.79-11.77,57.95,5.67,9.15,13.49-4.59,31.47-67.4,34.21-74.75,12.29-35.66,23.89-30.85,9.87,12.77-1.64,41.86-20.79,49.63-24.9,61.17-12.62,40.94-5.3,36.52,27.29-33.59,32.95-43.11,28.46-43.45,37-40.09,12.66,6.85,6.1,19.51-36,57.69-41.63,67.21-22.58,25-25,43.29-12.59,60.1-30.43,84c0,0-8.89,8.58-8.39,24.13s21.33,115.88,21.33,115.88Z" transform="translate(-17.37 -62.43)"/></g><g class="207daee2-88b6-49c1-8f50-4c576d622488"><path class="3fd26df3-ebec-4021-a024-9d5238171b1c" d="M210.67,506.18l8.83-70.1s2-18.26.78-26.08S221,387.21,235,371.06s40.17-42.28,43.16-57.75,7.05-33.48,15.3-42.56,12.52-18.13,17-32.58a75.47,75.47,0,0,1,13.49-17.27s10.91-14.17-4.92-17.27-28.15,9-30.87,16.12-8.1,20-15.23,24.93-17.7,24.33-18.74,25.85-7.18,6.51-12.46.64-4.59-12.08-9.76-21.58-13.22-22.21-13.45-30.52-2.68-25-1.68-40.51,5.4-28.87,3.32-41.39-4.5-53.57-4.5-53.57.55-9.32-13.37-9.77-11,33.36-11,33.36,0,29.63-1.74,37.58-1.91,27.66-1.16,36-.73,23.83-9.68,23.54-13.44-15.47-15-28-7.53-29.17-9.29-36.29-13.5-44.32-16.22-52.71-9.52-28.83-22.64-23S109.69,89,109.69,89s11.15,42.89,15.82,58.61,14,51.79,11.78,57.95-5.68,9.15-13.49-4.59-31.47-67.4-34.22-74.75S77.29,90.57,65.69,95.38s-9.86,12.77,1.64,41.86,20.8,49.63,24.91,61.17,12.61,40.94,5.29,36.52-27.28-33.59-32.95-43.11-28.46-43.45-37-40.09-12.66,6.85-6.1,19.51,36,57.69,41.62,67.21,22.59,25,25,43.29,12.58,60.1,30.43,84c0,0,8.88,8.58,8.38,24.13s-21.33,115.88-21.33,115.88Z" transform="translate(-17.37 -62.43)"/></g></svg>