<svg xmlns="http://www.w3.org/2000/svg" viewBox="0 0 450.1 227.4"><defs><style>.cls-1{fill:#006237;}.cls-2{fill:#b91f27;}.cls-3{fill:#6a6d71;}</style></defs><title>logo-baz</title><g id="Capa_2" data-name="Capa 2"><g id="Capa_1-2" data-name="Capa 1"><g id="Capa_2-2" data-name="Capa 2"><g id="Capa_1-2-2" data-name="Capa 1-2"><path class="cls-1" d="M54.3,203.4a4.53,4.53,0,0,0-1.7-1.3,4.78,4.78,0,0,0-3.5-.3,6.12,6.12,0,0,0-1.2.5,2,2,0,0,0-.9.9,2.77,2.77,0,0,0-.3,1.3,2.13,2.13,0,0,0,.3,1.2,6.47,6.47,0,0,0,.8.9,8.1,8.1,0,0,0,1.3.6,7.49,7.49,0,0,0,1.6.5c.7.2,1.4.5,2.1.7a7.81,7.81,0,0,1,2,1.1,6.12,6.12,0,0,1,1.5,1.7,5.26,5.26,0,0,1,.6,2.6,7.31,7.31,0,0,1-.6,3,5.85,5.85,0,0,1-1.7,2.1,6.61,6.61,0,0,1-2.5,1.3,9.48,9.48,0,0,1-3,.4,11,11,0,0,1-4-.8,7.55,7.55,0,0,1-3.2-2.3l2.7-2.5a5.1,5.1,0,0,0,2.1,1.7,6.16,6.16,0,0,0,2.6.6,5.85,5.85,0,0,0,1.3-.2,2.28,2.28,0,0,0,1.2-.6,2.84,2.84,0,0,0,.9-1A3.34,3.34,0,0,0,53,214a2.12,2.12,0,0,0-.4-1.4,4.74,4.74,0,0,0-1-1,5.93,5.93,0,0,0-1.6-.7c-.6-.2-1.2-.4-1.9-.6a14.58,14.58,0,0,1-1.9-.7,6.19,6.19,0,0,1-1.7-1.1,5.23,5.23,0,0,1-1.2-1.7,6.18,6.18,0,0,1-.5-2.5,5.07,5.07,0,0,1,.7-2.8,4.69,4.69,0,0,1,1.8-1.9,7.07,7.07,0,0,1,2.5-1.1,13.5,13.5,0,0,1,2.8-.4,9.6,9.6,0,0,1,3.3.6,7.67,7.67,0,0,1,2.9,1.7Z"/><path class="cls-1" d="M74.9,220.2H71.5v-2.3h-.1a4.36,4.36,0,0,1-1.7,1.9,5.12,5.12,0,0,1-2.8.8,6,6,0,0,1-2.4-.5,4.17,4.17,0,0,1-1.6-1.3,5.58,5.58,0,0,1-.9-1.9,7.8,7.8,0,0,1-.3-2.2v-9h3.6v8a5.7,5.7,0,0,0,.1,1.3,4.23,4.23,0,0,0,.4,1.2,2.36,2.36,0,0,0,.8.9,2.59,2.59,0,0,0,1.4.4,3.34,3.34,0,0,0,1.5-.3,2.19,2.19,0,0,0,1-.9,3.38,3.38,0,0,0,.6-1.2,6.75,6.75,0,0,0,.2-1.4v-7.9h3.6Z"/><path class="cls-1" d="M94.1,213.2v1H83.2a3.26,3.26,0,0,0,.4,1.4,3.13,3.13,0,0,0,.9,1.1,3.29,3.29,0,0,0,1.3.7,4,4,0,0,0,1.5.3,5.21,5.21,0,0,0,2.3-.5,4,4,0,0,0,1.5-1.4l2.4,1.9a7.29,7.29,0,0,1-6.2,2.9,10.59,10.59,0,0,1-3.1-.5,5.45,5.45,0,0,1-2.4-1.5,6,6,0,0,1-1.6-2.4,7.94,7.94,0,0,1-.6-3.2,8.29,8.29,0,0,1,.6-3.2,6.74,6.74,0,0,1,1.6-2.4,7.76,7.76,0,0,1,2.4-1.6,7.31,7.31,0,0,1,3-.6,8.68,8.68,0,0,1,2.8.5,5.41,5.41,0,0,1,2.2,1.5,8.17,8.17,0,0,1,1.5,2.4A19.82,19.82,0,0,1,94.1,213.2Zm-3.6-1.7a5.07,5.07,0,0,0-.2-1.3,2.38,2.38,0,0,0-.6-1.1,3.13,3.13,0,0,0-1.1-.8,3.34,3.34,0,0,0-1.5-.3,3.62,3.62,0,0,0-2.7,1,3.34,3.34,0,0,0-1.2,2.5h7.3Z"/><path class="cls-1" d="M98.8,205.8h3.4v2.3h.1a4.36,4.36,0,0,1,1.7-1.9,5.12,5.12,0,0,1,2.8-.8,6,6,0,0,1,2.4.5,4.17,4.17,0,0,1,1.6,1.3,5.58,5.58,0,0,1,.9,1.9,7.8,7.8,0,0,1,.3,2.2v9h-3.6v-8a5.7,5.7,0,0,0-.1-1.3,3.37,3.37,0,0,0-.4-1.2,2.36,2.36,0,0,0-.8-.9,2.59,2.59,0,0,0-1.4-.4,3.34,3.34,0,0,0-1.5.3,2.19,2.19,0,0,0-1,.9,3.38,3.38,0,0,0-.6,1.2,6.75,6.75,0,0,0-.2,1.4v7.9H98.8Zm1.1-2.6c.1-.5.2-.9.3-1.4a3.37,3.37,0,0,1,.6-1.2,9,9,0,0,1,1-.9,3.19,3.19,0,0,1,1.4-.3c.4,0,.8.1,1.2.1a5.64,5.64,0,0,1,1.2.4,7.59,7.59,0,0,0,1.1.4,2.92,2.92,0,0,0,.9.2,1,1,0,0,0,.9-.4,1.93,1.93,0,0,0,.5-.9h2c-.1.5-.2.9-.3,1.4a3.37,3.37,0,0,1-.6,1.2,9,9,0,0,1-1,.9,3.19,3.19,0,0,1-1.4.3,6.88,6.88,0,0,1-1.3-.2c-.5-.1-.8-.3-1.2-.4a6.89,6.89,0,0,0-1-.4,2.49,2.49,0,0,0-.8-.1,1,1,0,0,0-.9.4,4,4,0,0,0-.5.9Z"/><path class="cls-1" d="M126.3,218.3h0a4.72,4.72,0,0,1-1.8,1.6,6,6,0,0,1-2.7.6,11,11,0,0,1-1.8-.2,5.09,5.09,0,0,1-1.7-.7,3.53,3.53,0,0,1-1.3-1.4,4.65,4.65,0,0,1-.5-2.1,3.74,3.74,0,0,1,.9-2.6,7,7,0,0,1,2.4-1.5,15,15,0,0,1,3.2-.7c1.2-.1,2.3-.2,3.4-.2v-.4a2.12,2.12,0,0,0-1-2,4.14,4.14,0,0,0-2.3-.6,5.45,5.45,0,0,0-2.2.5,4.34,4.34,0,0,0-1.7,1.2l-1.9-2.2a8.11,8.11,0,0,1,2.8-1.7,9.49,9.49,0,0,1,3.2-.6,9.77,9.77,0,0,1,3.2.5,6,6,0,0,1,2,1.4,5,5,0,0,1,1,1.9,7.8,7.8,0,0,1,.3,2.2V220h-3.4v-1.7Zm-.1-4.7h-.8a10.87,10.87,0,0,0-1.8.1l-1.8.3a4,4,0,0,0-1.3.7,1.43,1.43,0,0,0-.5,1.3,2.92,2.92,0,0,0,.2.9,3.39,3.39,0,0,0,.6.6,6.88,6.88,0,0,0,.8.3,2.77,2.77,0,0,0,.9.1,3.56,3.56,0,0,0,2.8-1,4.06,4.06,0,0,0,1-2.7v-.6Z"/><path class="cls-1" d="M142.9,209.6a4.74,4.74,0,0,0-1.3-1.1,4.07,4.07,0,0,0-1.8-.5,2.93,2.93,0,0,0-1.6.4,1.13,1.13,0,0,0-.7,1.2,1.21,1.21,0,0,0,.8,1.2,13,13,0,0,0,2.3.7,9.83,9.83,0,0,1,1.6.5,10.93,10.93,0,0,1,1.5.8,4.26,4.26,0,0,1,1.1,1.2,3.42,3.42,0,0,1,.4,1.8,4.77,4.77,0,0,1-.5,2.2,4.71,4.71,0,0,1-1.3,1.5,4.06,4.06,0,0,1-1.9.8,8.52,8.52,0,0,1-2.3.3,9.6,9.6,0,0,1-3.3-.6,6.09,6.09,0,0,1-2.6-1.8l2.4-2.2a5.34,5.34,0,0,0,1.6,1.3,4.65,4.65,0,0,0,2.1.5,2.2,2.2,0,0,0,.8-.1,4.88,4.88,0,0,0,.7-.3,2.65,2.65,0,0,0,.6-.5,1.88,1.88,0,0,0,.2-.8,1.44,1.44,0,0,0-.8-1.3,12.26,12.26,0,0,0-2.5-.8,9.83,9.83,0,0,1-1.6-.5,6.11,6.11,0,0,1-1.4-.7,4,4,0,0,1-1-1.2,4.26,4.26,0,0,1-.4-1.7,4.65,4.65,0,0,1,.5-2.1,3.53,3.53,0,0,1,1.3-1.4,4.94,4.94,0,0,1,1.8-.8,7.61,7.61,0,0,1,2.1-.3,9.93,9.93,0,0,1,3,.5,6,6,0,0,1,2.4,1.6Z"/><path class="cls-1" d="M148.9,218.1a2,2,0,0,1,.7-1.6,2.19,2.19,0,0,1,1.7-.7,2.34,2.34,0,0,1,1.7.7,2.18,2.18,0,0,1,.12,3.08l-.12.12a2.19,2.19,0,0,1-1.7.7,2.92,2.92,0,0,1-.9-.2,3.51,3.51,0,0,1-.8-.5,1.79,1.79,0,0,1-.5-.7A1.49,1.49,0,0,1,148.9,218.1Z"/><path class="cls-1" d="M166.5,199H174a20.07,20.07,0,0,1,4.2.5,12.12,12.12,0,0,1,3.8,1.8,8.91,8.91,0,0,1,2.7,3.3,10.61,10.61,0,0,1,1,5,10,10,0,0,1-1,4.8,10.87,10.87,0,0,1-2.7,3.3,10.46,10.46,0,0,1-3.8,1.9,15.23,15.23,0,0,1-4.2.6h-7.5Zm6.9,17.9a13.58,13.58,0,0,0,2.9-.3,5.68,5.68,0,0,0,2.6-1.2,5.85,5.85,0,0,0,1.9-2.2,7.45,7.45,0,0,0,.7-3.6,7.88,7.88,0,0,0-.7-3.7,5.18,5.18,0,0,0-1.9-2.2,8.49,8.49,0,0,0-2.6-1.1,15,15,0,0,0-2.9-.3h-3.1V217h3.1Z"/><path class="cls-1" d="M204.1,213.2v1H193.2a3.26,3.26,0,0,0,.4,1.4,3.13,3.13,0,0,0,.9,1.1,3.29,3.29,0,0,0,1.3.7,4,4,0,0,0,1.5.3,5.21,5.21,0,0,0,2.3-.5,4,4,0,0,0,1.5-1.4l2.4,1.9a7.29,7.29,0,0,1-6.2,2.9,10.59,10.59,0,0,1-3.1-.5,5.45,5.45,0,0,1-2.4-1.5,6,6,0,0,1-1.6-2.4,7.94,7.94,0,0,1-.6-3.2,8.29,8.29,0,0,1,.6-3.2,6.74,6.74,0,0,1,1.6-2.4,7.76,7.76,0,0,1,2.4-1.6,7.31,7.31,0,0,1,3-.6,8.68,8.68,0,0,1,2.8.5,5.41,5.41,0,0,1,2.2,1.5,8.17,8.17,0,0,1,1.5,2.4A19.81,19.81,0,0,1,204.1,213.2Zm-3.6-1.7a5.07,5.07,0,0,0-.2-1.3,2.38,2.38,0,0,0-.6-1.1,3.13,3.13,0,0,0-1.1-.8,3.34,3.34,0,0,0-1.5-.3,3.62,3.62,0,0,0-2.7,1,3.34,3.34,0,0,0-1.2,2.5h7.3Z"/><path class="cls-1" d="M218.6,209.8a3.45,3.45,0,0,0-1.3-1,3.53,3.53,0,0,0-1.7-.4,3.06,3.06,0,0,0-1.7.4,3.18,3.18,0,0,0-1.2,1.1,3.48,3.48,0,0,0-.7,1.5,4.68,4.68,0,0,0-.2,1.7,5.08,5.08,0,0,0,.3,1.7,5.48,5.48,0,0,0,.8,1.5,4.74,4.74,0,0,0,1.3,1.1,3.42,3.42,0,0,0,1.8.4,5.08,5.08,0,0,0,1.7-.3,2.21,2.21,0,0,0,1.3-1l2.2,2.3a7.63,7.63,0,0,1-2.3,1.5,9.25,9.25,0,0,1-6,0,6.44,6.44,0,0,1-2.5-1.5,8.07,8.07,0,0,1-1.7-2.4,7.94,7.94,0,0,1-.6-3.2,7.45,7.45,0,0,1,.6-3.1,8.07,8.07,0,0,1,1.7-2.4,6.08,6.08,0,0,1,2.4-1.5,7.29,7.29,0,0,1,3-.5,8.15,8.15,0,0,1,3.1.6,6,6,0,0,1,2.4,1.6Z"/><path class="cls-1" d="M224.1,200.9a2,2,0,0,1,.6-1.5,2.27,2.27,0,0,1,1.6-.6,2.72,2.72,0,0,1,1.7.6,2.13,2.13,0,0,1,.7,1.5,1.8,1.8,0,0,1-.7,1.5,2.35,2.35,0,0,1-1.7.6,2.11,2.11,0,0,1-1.6-.6A2,2,0,0,1,224.1,200.9Zm.5,4.9h3.6v14.4h-3.6Z"/><path class="cls-1" d="M248.4,220.2H245V218h-.1a4.84,4.84,0,0,1-2.1,1.9,6.89,6.89,0,0,1-2.9.7,6.53,6.53,0,0,1-2.9-.6,7.35,7.35,0,0,1-2.2-1.6,7.22,7.22,0,0,1-1.4-2.4,9.43,9.43,0,0,1-.5-3,9.93,9.93,0,0,1,.5-3,7.22,7.22,0,0,1,1.4-2.4A6.91,6.91,0,0,1,237,206a6.71,6.71,0,0,1,2.8-.6,9.91,9.91,0,0,1,1.8.2,3.51,3.51,0,0,1,1.4.6,8.65,8.65,0,0,1,1,.7l.7.7h.1V197.5h3.6Zm-11.8-7.3a5.08,5.08,0,0,0,.3,1.7,3.61,3.61,0,0,0,.8,1.5,4.74,4.74,0,0,0,1.3,1.1,3.42,3.42,0,0,0,1.8.4,3.66,3.66,0,0,0,1.8-.4,2.85,2.85,0,0,0,1.3-1.1,3.61,3.61,0,0,0,.8-1.5,4.67,4.67,0,0,0,.3-1.7,5.08,5.08,0,0,0-.3-1.7,5.3,5.3,0,0,0-.8-1.5,6.89,6.89,0,0,0-1.3-1.1,4.25,4.25,0,0,0-3.6,0,4.49,4.49,0,0,0-1.3,1.1,5.3,5.3,0,0,0-.8,1.5,5.55,5.55,0,0,0-.3,1.7Z"/><path class="cls-1" d="M267.7,213.2v1h-11a3.26,3.26,0,0,0,.4,1.4,3.13,3.13,0,0,0,.9,1.1,3.29,3.29,0,0,0,1.3.7,4,4,0,0,0,1.5.3,5.21,5.21,0,0,0,2.3-.5,4,4,0,0,0,1.5-1.4l2.4,1.9a7.29,7.29,0,0,1-6.2,2.9,10.59,10.59,0,0,1-3.1-.5,5.45,5.45,0,0,1-2.4-1.5,6,6,0,0,1-1.6-2.4,7.94,7.94,0,0,1-.6-3.2,8.29,8.29,0,0,1,.6-3.2,6.74,6.74,0,0,1,1.6-2.4,10,10,0,0,1,2.4-1.6,7.31,7.31,0,0,1,3-.6,8.68,8.68,0,0,1,2.8.5,5.41,5.41,0,0,1,2.2,1.5,8.17,8.17,0,0,1,1.5,2.4A9.8,9.8,0,0,1,267.7,213.2Zm-3.6-1.7a5.07,5.07,0,0,0-.2-1.3,2.38,2.38,0,0,0-.6-1.1,3.13,3.13,0,0,0-1.1-.8,3.34,3.34,0,0,0-1.5-.3,3.62,3.62,0,0,0-2.7,1,3.34,3.34,0,0,0-1.2,2.5h7.3Z"/><path class="cls-1" d="M280.2,209.6a4.74,4.74,0,0,0-1.3-1.1,4.07,4.07,0,0,0-1.8-.5,2.93,2.93,0,0,0-1.6.4,1.13,1.13,0,0,0-.7,1.2,1.21,1.21,0,0,0,.8,1.2,13,13,0,0,0,2.3.7,9.83,9.83,0,0,1,1.6.5,10.93,10.93,0,0,1,1.5.8,4.26,4.26,0,0,1,1.1,1.2,3.42,3.42,0,0,1,.4,1.8,4.77,4.77,0,0,1-.5,2.2,4.71,4.71,0,0,1-1.3,1.5,4.06,4.06,0,0,1-1.9.8,8.52,8.52,0,0,1-2.3.3,9.6,9.6,0,0,1-3.3-.6,6.09,6.09,0,0,1-2.6-1.8L273,216a5.34,5.34,0,0,0,1.6,1.3,4.65,4.65,0,0,0,2.1.5,2.2,2.2,0,0,0,.8-.1,4.88,4.88,0,0,0,.7-.3,2.65,2.65,0,0,0,.6-.5,1.88,1.88,0,0,0,.2-.8,1.44,1.44,0,0,0-.8-1.3,12.26,12.26,0,0,0-2.5-.8,9.83,9.83,0,0,1-1.6-.5,6.11,6.11,0,0,1-1.4-.7,4,4,0,0,1-1-1.2,4.26,4.26,0,0,1-.4-1.7,4.65,4.65,0,0,1,.5-2.1,3.53,3.53,0,0,1,1.3-1.4,4.94,4.94,0,0,1,1.8-.8,7.61,7.61,0,0,1,2.1-.3,9.93,9.93,0,0,1,3,.5,6,6,0,0,1,2.4,1.6Z"/><path class="cls-1" d="M286.2,218.1a2,2,0,0,1,.7-1.6,2.19,2.19,0,0,1,1.7-.7,2.34,2.34,0,0,1,1.7.7,2.18,2.18,0,0,1,.12,3.08l-.12.12a2.19,2.19,0,0,1-1.7.7,2.92,2.92,0,0,1-.9-.2,3.51,3.51,0,0,1-.8-.5,1.79,1.79,0,0,1-.5-.7A2.92,2.92,0,0,1,286.2,218.1Z"/><path class="cls-1" d="M303.8,199h3.8v17.8h9v3.4H303.8Z"/><path class="cls-1" d="M318.7,212.9a7.79,7.79,0,0,1,.6-3.1,8.07,8.07,0,0,1,1.7-2.4,5.79,5.79,0,0,1,2.5-1.5,8.08,8.08,0,0,1,3.1-.5,10.59,10.59,0,0,1,3.1.5,8.74,8.74,0,0,1,2.5,1.5,7,7,0,0,1,1.7,2.4,8.31,8.31,0,0,1,0,6.2,8.07,8.07,0,0,1-1.7,2.4,7.16,7.16,0,0,1-2.5,1.6,8.31,8.31,0,0,1-6.2,0,7.16,7.16,0,0,1-2.5-1.6,8.07,8.07,0,0,1-1.7-2.4A7.45,7.45,0,0,1,318.7,212.9Zm3.7,0a5.08,5.08,0,0,0,.3,1.7,3.61,3.61,0,0,0,.8,1.5,4.74,4.74,0,0,0,1.3,1.1,3.58,3.58,0,0,0,1.9.4,4.06,4.06,0,0,0,1.9-.4,4.49,4.49,0,0,0,1.3-1.1,5.3,5.3,0,0,0,.8-1.5,5,5,0,0,0,0-3.4,5.48,5.48,0,0,0-.8-1.5,4.74,4.74,0,0,0-1.3-1.1,3.58,3.58,0,0,0-1.9-.4,4.06,4.06,0,0,0-1.9.4,4.49,4.49,0,0,0-1.3,1.1,5.3,5.3,0,0,0-.8,1.5,5.55,5.55,0,0,0-.3,1.7Z"/><path class="cls-1" d="M353.6,205.8v13.1a12.3,12.3,0,0,1-.5,3.5,7.2,7.2,0,0,1-1.5,2.7,7.39,7.39,0,0,1-2.5,1.7,9.69,9.69,0,0,1-3.6.6c-.6,0-1.2-.1-1.8-.1a12.86,12.86,0,0,1-1.9-.4,13.35,13.35,0,0,1-1.8-.7,8.64,8.64,0,0,1-1.6-1l2.1-2.8a6.08,6.08,0,0,0,2.4,1.5,8.57,8.57,0,0,0,2.7.5,4.81,4.81,0,0,0,2.2-.4,3.26,3.26,0,0,0,2.1-2.6,12.31,12.31,0,0,0,.2-2v-1.2H350a5.26,5.26,0,0,1-2,1.6,6,6,0,0,1-2.7.6,6.53,6.53,0,0,1-2.9-.6,6,6,0,0,1-2.2-1.6,7.22,7.22,0,0,1-1.4-2.4,8.66,8.66,0,0,1,0-5.8,7.22,7.22,0,0,1,1.4-2.4,6,6,0,0,1,2.2-1.6,6.84,6.84,0,0,1,2.9-.6,6.39,6.39,0,0,1,2.8.6,4.84,4.84,0,0,1,2.1,1.9h.1v-2.2h3.3Zm-7.6,2.5a3.66,3.66,0,0,0-1.8.4,4.12,4.12,0,0,0-1.3,1,3.92,3.92,0,0,0-.8,1.4,5.66,5.66,0,0,0-.3,1.8,5.08,5.08,0,0,0,.3,1.7,6.38,6.38,0,0,0,.8,1.4,3.25,3.25,0,0,0,1.3,1,3.29,3.29,0,0,0,1.7.4,3.42,3.42,0,0,0,1.8-.4,3.25,3.25,0,0,0,1.3-1,4.19,4.19,0,0,0,.9-1.4,4.67,4.67,0,0,0,.3-1.7,5.66,5.66,0,0,0-.3-1.8,4.62,4.62,0,0,0-.9-1.5,6.42,6.42,0,0,0-1.3-1A4.67,4.67,0,0,0,346,208.3Z"/><path class="cls-1" d="M359.2,205.8h3.4v2.4h.1a5.51,5.51,0,0,1,1.7-2,4.38,4.38,0,0,1,2.5-.8h.4c.2,0,.3,0,.4.1v3.3a1.27,1.27,0,0,0-.6-.1h-.5a4,4,0,0,0-2,.4,4.26,4.26,0,0,0-1.2,1.1,3.1,3.1,0,0,0-.6,1.3,4.14,4.14,0,0,0-.1,1v7.7h-3.6V205.8Z"/><path class="cls-1" d="M379.8,218.3h0a4.72,4.72,0,0,1-1.8,1.6,6,6,0,0,1-2.7.6,11,11,0,0,1-1.8-.2,5.09,5.09,0,0,1-1.7-.7,3.53,3.53,0,0,1-1.3-1.4,4.65,4.65,0,0,1-.5-2.1,3.74,3.74,0,0,1,.9-2.6,7,7,0,0,1,2.4-1.5,15,15,0,0,1,3.2-.7c1.2-.1,2.3-.2,3.4-.2v-.4a2.12,2.12,0,0,0-1-2,4.14,4.14,0,0,0-2.3-.6,5.45,5.45,0,0,0-2.2.5,4.34,4.34,0,0,0-1.7,1.2l-1.9-2.2a8.11,8.11,0,0,1,2.8-1.7,9.49,9.49,0,0,1,3.2-.6,9.77,9.77,0,0,1,3.2.5,6,6,0,0,1,2,1.4,5,5,0,0,1,1,1.9,7.8,7.8,0,0,1,.3,2.2V220h-3.4v-1.7Zm-.1-4.7h-.8a10.87,10.87,0,0,0-1.8.1l-1.8.3a4,4,0,0,0-1.3.7,1.43,1.43,0,0,0-.5,1.3,2.92,2.92,0,0,0,.2.9,1.7,1.7,0,0,0,.6.6,6.89,6.89,0,0,0,.8.3,2.77,2.77,0,0,0,.9.1,3.56,3.56,0,0,0,2.8-1,4.06,4.06,0,0,0,1-2.7v-.6Z"/><path class="cls-1" d="M396.4,209.6a4.74,4.74,0,0,0-1.3-1.1,4.07,4.07,0,0,0-1.8-.5,2.93,2.93,0,0,0-1.6.4,1.13,1.13,0,0,0-.7,1.2,1.21,1.21,0,0,0,.8,1.2,13,13,0,0,0,2.3.7,9.83,9.83,0,0,1,1.6.5,10.93,10.93,0,0,1,1.5.8,4.26,4.26,0,0,1,1.1,1.2,3.42,3.42,0,0,1,.4,1.8,4.77,4.77,0,0,1-.5,2.2,4.71,4.71,0,0,1-1.3,1.5,4.06,4.06,0,0,1-1.9.8,8.52,8.52,0,0,1-2.3.3,9.6,9.6,0,0,1-3.3-.6,6.09,6.09,0,0,1-2.6-1.8l2.4-2.2a5.34,5.34,0,0,0,1.6,1.3,4.65,4.65,0,0,0,2.1.5,2.2,2.2,0,0,0,.8-.1,4.88,4.88,0,0,0,.7-.3,2.65,2.65,0,0,0,.6-.5,1.88,1.88,0,0,0,.2-.8,1.44,1.44,0,0,0-.8-1.3,12.26,12.26,0,0,0-2.5-.8,9.83,9.83,0,0,1-1.6-.5,6.11,6.11,0,0,1-1.4-.7,4,4,0,0,1-1-1.2,4.26,4.26,0,0,1-.4-1.7,4.65,4.65,0,0,1,.5-2.1,3.53,3.53,0,0,1,1.3-1.4,4.94,4.94,0,0,1,1.8-.8,7.61,7.61,0,0,1,2.1-.3,9.93,9.93,0,0,1,3,.5,6,6,0,0,1,2.4,1.6Z"/><path class="cls-1" d="M402.4,218.1a2,2,0,0,1,.7-1.6,2.19,2.19,0,0,1,1.7-.7,2.34,2.34,0,0,1,1.7.7,2.18,2.18,0,0,1,.12,3.08l-.12.12a2.19,2.19,0,0,1-1.7.7,2.92,2.92,0,0,1-.9-.2,3.51,3.51,0,0,1-.8-.5,1.79,1.79,0,0,1-.5-.7A1.49,1.49,0,0,1,402.4,218.1Z"/><path class="cls-2" d="M225.1,39.5a32.1,32.1,0,1,0,32.1,32.1A32.1,32.1,0,0,0,225.1,39.5Z"/><path class="cls-1" d="M241.8,7s-.8-.2-2.2-.6A243.67,243.67,0,0,1,266.7,0c-14.5,0-26.8.7-37.3,2.3-1.5.2-3,.5-4.4.7-1.4-.3-2.9-.5-4.4-.7C210.1.7,197.8,0,183.3,0a243.67,243.67,0,0,1,27.1,6.4c-1.4.4-2.2.6-2.2.6-48,15-84.2,47.9-81.6,74.9,2.2,22.4,25,33.7,62.1,29.8C168,108,159.6,97.5,158,81.7c-2.3-24.2,25.2-52.9,64.2-69.4,0,0,1-.4,2.7-1,1.7.6,2.7,1,2.7,1,39,16.5,66.5,45.2,64.2,69.4-1.5,15.8-10,26.3-30.7,30,37.2,3.9,60-7.5,62.1-29.8C326,54.9,289.8,22,241.8,7Z"/><path class="cls-3" d="M32.5,151.9v-.1c7.6-.9,12.7-5.7,12.7-12.2,0-9.1-8.6-11.1-13.6-11.1H10.1L0,176.8l22-.3c11.1-.1,19.8-5,19.8-15.2C41.9,155.9,38.1,152.7,32.5,151.9ZM18.2,167.6H14.7l2.4-11.3h3.1c5.8,0,8.9.6,8.9,4.8C29,165.8,24.7,167.6,18.2,167.6Zm5.6-20.1H19l2.1-10h3.3c4.8,0,8,.6,8,4.5C32.3,145.4,29.2,147.5,23.8,147.5Z"/><path class="cls-3" d="M67.3,139.8a37.6,37.6,0,0,0-13.2,2.1L52.9,151a23.23,23.23,0,0,1,11.7-2.8c4.1,0,6.6,2.1,6.6,4.6a7.57,7.57,0,0,1-.1,1.5c-1.7-.1-4.2-.3-6.7-.3-11,0-19.9,4.4-19.9,13.2,0,7,4.3,10.4,12,10.4,4.8,0,9.5-1.7,12.1-5.9v-.1l.1.1-.6,5H78.3c1.4-10.9,4.6-18.9,4.6-24.6C83,143.2,75.9,139.8,67.3,139.8Zm-6.8,29.4a3.94,3.94,0,0,1-4.2-3.6c0-3.2,4.4-5.3,10.3-5.1a19.42,19.42,0,0,1,3.3.2C69,165.6,65.8,169.2,60.5,169.2Z"/><path class="cls-3" d="M116.2,139.8c-6.6,0-10.3,2.7-13.9,6.7h-.1l1-5.9H91.7a92.2,92.2,0,0,1-1.5,9.4l-5.6,26.6H97l3.5-16.6c.9-5.3,4-9.9,9.3-9.9,3.5-.1,4.8,2,4.8,4.1a33.14,33.14,0,0,1-.8,5.5l-3.5,16.9h12.9l3.3-16.8a31.52,31.52,0,0,0,1-7.6C127.4,145.2,123.4,139.8,116.2,139.8Z"/><path class="cls-3" d="M154.4,149a20,20,0,0,1,8,1.9l2.7-8.6a33.76,33.76,0,0,0-11.3-2.4c-13.8,0-23.2,9.4-23.2,21.2,0,9.1,6.5,16.5,17,16.5a35,35,0,0,0,10.7-1.4l1.8-9.3a19.39,19.39,0,0,1-8,1.6c-5.3,0-8.6-3.5-8.6-7.8C143.4,153.1,148,149,154.4,149Z"/><path class="cls-3" d="M186.6,139.8c-14.1,0-23.2,8.6-23.2,21.2,0,9.1,5.4,16.5,18.7,16.5,13.5,0,23.2-6.6,23.2-21.6C205.4,146.9,198.9,139.8,186.6,139.8Zm-3.6,29c-4.2.1-6.8-3.2-6.8-8,0-5.7,3.7-12.2,9.8-12.2,4.8,0,6.5,3.5,6.5,7.3C192.5,164,188.8,168.8,183,168.8Z"/><path class="cls-3" d="M245.7,128.4,217,176.7h14l5.7-10.3h18.7l1.3,10.3h13l-7.9-48.3Zm-4,28.9,10.2-18.9h.1l2.1,18.9Z"/><polygon class="cls-3" points="276.9 149.8 292.4 149.8 272.7 167.3 270.9 176.7 302.3 176.7 304.1 167.6 287.7 167.6 307.4 150.1 309.4 140.7 278.8 140.7 276.9 149.8"/><path class="cls-3" d="M328.7,149.4h9.1l1.5-8.7h-8.6l2.5-11.3-13.1,3.5-1.7,7.7h-7.1l-1.5,8.7h6.6l-2.1,10.1a36,36,0,0,0-1.1,7.4c0,7.5,5.1,10.7,11.4,10.7a51.25,51.25,0,0,0,7.7-.7l1.4-8.2a11.77,11.77,0,0,1-4,1,3.81,3.81,0,0,1-4.1-4,38.74,38.74,0,0,1,1-6.2Z"/><path class="cls-3" d="M359.6,139.9c-16,0-21.6,12.9-21.6,21.2,0,9.1,6.5,16.5,18.5,16.5a46.89,46.89,0,0,0,12.6-2l1.6-8.8a27.88,27.88,0,0,1-11.3,2.5c-7.6,0-9.5-3-9.7-6.9h25.5a37.5,37.5,0,0,0,.9-6.8C376.2,144.6,369.1,139.9,359.6,139.9Zm-9.1,15.4a9.14,9.14,0,0,1,9.2-7.1c4.6,0,6.1,3.3,6.1,7.1Z"/><path class="cls-3" d="M403.1,149a20,20,0,0,1,8,1.9l2.7-8.6a33.76,33.76,0,0,0-11.3-2.4c-13.8,0-23.2,9.4-23.2,21.2,0,9.1,6.5,16.5,17,16.5a35,35,0,0,0,10.7-1.4l1.8-9.3a19.39,19.39,0,0,1-8,1.6c-5.3,0-8.6-3.5-8.6-7.8C392.1,153.1,396.7,149,403.1,149Z"/><path class="cls-3" d="M434.5,139.8a37.6,37.6,0,0,0-13.2,2.1l-1.2,9.1a23,23,0,0,1,11.7-2.8c4.1,0,6.6,2.1,6.6,4.6a7.57,7.57,0,0,1-.1,1.5c-1.7-.1-4.2-.3-6.7-.3-11,0-19.9,4.4-19.9,13.2,0,7,4.3,10.4,12,10.4,4.8,0,9.5-1.7,12.1-5.9v-.1l.1.1-.6,5h10.2c1.4-10.9,4.6-18.9,4.6-24.6C450.1,143.2,443.1,139.8,434.5,139.8Zm-6.9,29.4a4,4,0,0,1-4.2-3.6c0-3.2,4.4-5.3,10.3-5.1a19.42,19.42,0,0,1,3.3.2C436.1,165.6,433,169.2,427.6,169.2Z"/></g></g></g></g></svg>