<?xml version="1.0" encoding="UTF-8" standalone="no"?>
<svg width="50px" height="50px" viewBox="0 0 50 50" version="1.1" xmlns="http://www.w3.org/2000/svg" xmlns:xlink="http://www.w3.org/1999/xlink">
    <!-- Generator: Sketch 49 (51002) - http://www.bohemiancoding.com/sketch -->
    <title>Group 9</title>
    <desc>Created with Sketch.</desc>
    <defs></defs>
    <g id="Icon" stroke="none" stroke-width="1" fill="none" fill-rule="evenodd">
        <g id="Caracteristicas" transform="translate(-50.000000, -499.000000)">
            <g id="Group-9" transform="translate(50.000000, 499.000000)">
                <g id="atoms/icon/50x50/pdf">
                    <path d="M50,25 C50,38.8071875 38.8071875,50 25,50 C11.1928125,50 0,38.8071875 0,25 C0,11.1928125 11.1928125,0 25,0 C38.8071875,0 50,11.1928125 50,25" id="Fill" fill="#278252"></path>
                    <g id="atoms/icon/32x32/pdf" transform="translate(9.000000, 9.000000)" fill="#FFFFFF">
                        <path d="M22.2083556,18.3767111 L22.1016889,18.3767111 L21.8919111,18.3767111 C21.3656889,18.3767111 20.6279111,18.1651556 19.8901333,17.8504889 L19.8901333,17.7456 L20.1016889,17.7456 C21.5772444,17.7456 21.9968,18.0602667 22.1016889,18.1651556 C22.1016889,18.2700444 22.2083556,18.2700444 22.2083556,18.2700444 L22.2083556,18.3767111 Z M14.2030222,18.5864889 L14.0981333,18.5864889 L13.9914667,18.5864889 C14.2030222,18.1651556 14.4128,17.8504889 14.6243556,17.4291556 C15.0456889,16.4816 15.4670222,15.6371556 15.6785778,14.9011556 C16.0981333,15.8487111 16.7310222,16.6913778 17.2572444,17.3224889 C17.3621333,17.4291556 17.4670222,17.5340444 17.6785778,17.6389333 C16.8359111,17.7456 15.5719111,18.0602667 14.2030222,18.5864889 Z M15.5719111,10.1598222 C15.6785778,10.1598222 15.6785778,10.0549333 15.6785778,10.0549333 L15.7834667,10.1598222 L15.7834667,10.2664889 C15.8883556,10.3713778 15.8883556,10.7927111 15.7834667,11.3189333 L15.7834667,11.5304889 C15.7834667,11.8469333 15.6785778,12.0567111 15.5719111,12.4780444 C15.3621333,11.5304889 15.3621333,10.7927111 15.5719111,10.1598222 Z M10.5159111,21.7473778 C10.6208,21.4309333 11.1488,20.6931556 11.8848,20.0620444 C11.9914667,19.9571556 12.2012444,19.8504889 12.4128,19.7456 C11.7799111,21.0096 11.1488,21.6407111 10.5159111,21.7473778 Z M20.4181333,17.0060444 C19.9968,17.0060444 19.5754667,17.1127111 19.0492444,17.1127111 C18.6261333,16.9011556 18.4163556,16.6913778 18.0999111,16.4816 C17.4670222,15.8487111 16.8359111,14.9011556 16.4145778,13.7420444 L16.4145778,13.6353778 C16.8359111,12.2664889 17.1523556,10.5811556 16.4145778,9.84515556 C16.2048,9.74026667 15.9932444,9.6336 15.7834667,9.6336 L15.5719111,9.6336 C15.1505778,9.6336 14.8359111,10.0549333 14.7292444,10.4762667 C14.3079111,11.9518222 14.5194667,12.6878222 14.9408,13.9518222 C14.6243556,14.9011556 14.3079111,15.9536 13.7816889,17.0060444 C13.3603556,17.7456 13.0439111,18.3767111 12.7274667,18.9029333 C12.3079111,19.1144889 11.9914667,19.3242667 11.7799111,19.4291556 C10.5159111,20.1669333 9.8848,21.1144889 9.77991111,21.6407111 C9.77991111,21.8522667 9.77991111,21.9571556 9.8848,22.1687111 L9.8848,22.2736 L10.4110222,22.5900444 C10.5159111,22.6949333 10.6208,22.6949333 10.8323556,22.6949333 C11.6750222,22.6949333 12.7274667,21.6407111 13.9914667,19.4291556 C14.0981333,19.3242667 14.0981333,19.3242667 14.2030222,19.3242667 C15.2554667,18.9029333 16.6261333,18.6931556 18.4163556,18.4816 C19.4688,19.0078222 20.7328,19.2193778 21.5772444,19.2193778 C21.9968,19.2193778 22.3132444,19.1144889 22.5248,19.0078222 C22.7345778,18.7980444 22.8394667,18.4816 22.9461333,18.3767111 C22.9461333,18.1651556 22.9461333,17.9553778 22.8394667,17.7456 C22.5248,17.2176 21.6821333,17.0060444 20.4181333,17.0060444 Z" id="Fill"></path>
                        <path d="M25.7889778,23.4323556 C25.7889778,24.5914667 24.8414222,25.5390222 23.6823111,25.5390222 L8.93742222,25.5390222 C7.77831111,25.5390222 6.82897778,24.5914667 6.82897778,23.4323556 L6.82897778,8.68568889 C6.82897778,7.52835556 7.77831111,6.5808 8.93742222,6.5808 L23.6823111,6.5808 C24.8414222,6.5808 25.7889778,7.52835556 25.7889778,8.68568889 L25.7889778,23.4323556 Z M29.4334222,-0.000533333333 L3.01031111,-0.000533333333 C2.45386667,-0.000533333333 2.00053333,0.4528 2.00053333,1.01102222 L2.00053333,30.9879111 C2.00053333,31.5461333 2.45386667,31.9994667 3.01031111,31.9994667 L29.4334222,31.9994667 C29.9916444,31.9994667 30.4449778,31.5461333 30.4449778,30.9879111 L30.4449778,1.01102222 C30.4449778,0.4528 29.9916444,-0.000533333333 29.4334222,-0.000533333333 Z" id="Fill"></path>
                    </g>
                </g>
            </g>
        </g>
    </g>
</svg>