<?xml version="1.0" encoding="utf-8"?>
<!-- Generator: Adobe Illustrator 22.1.0, SVG Export Plug-In . SVG Version: 6.00 Build 0)  -->
<svg version="1.1" xmlns="http://www.w3.org/2000/svg" xmlns:xlink="http://www.w3.org/1999/xlink" x="0px" y="0px"
	 viewBox="0 0 25 25" style="enable-background:new 0 0 25 25;" xml:space="preserve">
<style type="text/css">
	.st0{display:none;}
	.st1{display:inline;fill:#999999;}
	.st2{fill:#999999;}
</style>
<g id="Capa_1" class="st0">
	<path class="st1" d="M19.5,3.5h-14c-1.1,0-2,0.9-2,2v14c0,1.1,0.9,2,2,2h14c1.1,0,2-0.9,2-2v-14C21.5,4.4,20.6,3.5,19.5,3.5
		 M19.5,5.5v14h-14v-14H19.5 M10.5,17.5l-4-4l1.4-1.4l2.6,2.6l6.6-6.6l1.4,1.4"/>
</g>
<g id="Capa_2" class="st0">
	<path class="st1" d="M12.5,16C10.6,16,9,14.4,9,12.5S10.6,9,12.5,9s3.5,1.6,3.5,3.5S14.4,16,12.5,16 M19.9,13.5
		c0-0.3,0.1-0.6,0.1-1s0-0.7-0.1-1L22,9.9c0.2-0.1,0.2-0.4,0.1-0.6l-2-3.5c-0.1-0.2-0.4-0.3-0.6-0.2l-2.5,1c-0.5-0.4-1.1-0.7-1.7-1
		L15,2.9c0-0.2-0.3-0.4-0.5-0.4h-4c-0.3,0-0.5,0.2-0.5,0.4L9.6,5.6C9,5.8,8.5,6.2,7.9,6.6l-2.5-1C5.2,5.5,5,5.6,4.8,5.8l-2,3.5
		C2.7,9.4,2.8,9.7,3,9.9l2.1,1.6c0,0.3-0.1,0.7-0.1,1s0,0.6,0.1,1L3,15.1c-0.2,0.1-0.3,0.4-0.1,0.6l2,3.5c0.1,0.2,0.4,0.3,0.6,0.2
		l2.5-1c0.5,0.4,1.1,0.7,1.7,1l0.4,2.6c0,0.2,0.3,0.4,0.5,0.4h4c0.3,0,0.5-0.2,0.5-0.4l0.4-2.6c0.6-0.3,1.2-0.6,1.7-1l2.5,1
		c0.2,0.1,0.5,0,0.6-0.2l2-3.5c0.1-0.2,0.1-0.5-0.1-0.6L19.9,13.5z"/>
</g>
<g id="Capa_3" class="st0">
	<path class="st1" d="M12.8,1.8h-8c-1.1,0-2,0.9-2,2v16c0,1.1,0.9,2,2,2h7c-0.4-0.3-0.8-0.6-1.1-0.9c-0.3-0.3-0.6-0.7-0.9-1.1h-5
		v-16h7v5h5V10c0.7,0.2,1.4,0.4,2,0.8v-3L12.8,1.8 M19.1,18.7c1.3-2.1,0.7-4.9-1.4-6.2c-2.1-1.3-4.9-0.7-6.2,1.4
		c-1.3,2.1-0.7,4.9,1.4,6.2c1.5,0.9,3.3,0.9,4.8,0l3.1,3.1l1.4-1.4L19.1,18.7 M15.3,18.8c-1.4,0-2.5-1.1-2.5-2.5s1.1-2.5,2.5-2.5
		s2.5,1.1,2.5,2.5S16.7,18.8,15.3,18.8z"/>
</g>
<g id="Capa_4" class="st0">
	<path class="st1" d="M18.3,5c-0.1,0-0.2,0-0.2-0.1c-1.9-1-3.6-1.4-5.6-1.4c-2,0-3.9,0.5-5.6,1.4C6.7,5,6.4,4.9,6.3,4.7
		C6.1,4.5,6.2,4.2,6.5,4c1.9-1,3.9-1.5,6-1.5s4,0.5,6,1.5c0.3,0.2,0.3,0.4,0.2,0.7C18.7,4.9,18.5,5,18.3,5 M4,10.2
		c-0.1,0-0.2,0-0.3-0.1C3.5,10,3.4,9.7,3.6,9.4c1-1.4,2.3-2.5,3.8-3.3c3.2-1.6,7.2-1.6,10.3,0c1.5,0.8,2.8,1.8,3.8,3.2
		c0.2,0.2,0.1,0.5-0.1,0.7c-0.2,0.2-0.5,0.1-0.7-0.1c-0.9-1.3-2-2.3-3.4-3c-2.9-1.5-6.5-1.5-9.4,0C6.4,7.8,5.3,8.8,4.4,10
		C4.3,10.1,4.2,10.2,4,10.2 M10.3,22.3c-0.1,0-0.3-0.1-0.4-0.2c-0.9-0.9-1.3-1.4-2-2.6c-0.7-1.2-1-2.7-1-4.3c0-3,2.5-5.4,5.7-5.4
		s5.7,2.4,5.7,5.4c0,0.3-0.2,0.5-0.5,0.5s-0.5-0.2-0.5-0.5c0-2.4-2.1-4.4-4.7-4.4s-4.7,2-4.7,4.4c0,1.4,0.3,2.8,0.9,3.8
		c0.6,1.2,1.1,1.6,1.8,2.4c0.2,0.2,0.2,0.5,0,0.7C10.5,22.2,10.4,22.3,10.3,22.3 M17.4,20.4c-1.2,0-2.2-0.3-3.1-0.9
		c-1.5-1-2.4-2.6-2.4-4.4c0-0.3,0.2-0.5,0.5-0.5s0.5,0.2,0.5,0.5c0,1.4,0.7,2.7,1.9,3.6c0.7,0.5,1.5,0.7,2.5,0.7c0.2,0,0.6,0,1-0.1
		c0.3,0,0.5,0.1,0.6,0.4c0,0.3-0.1,0.5-0.4,0.6C18.1,20.4,17.6,20.4,17.4,20.4 M15.4,22.5c0,0-0.1,0-0.1,0c-1.6-0.5-2.6-1-3.7-2.1
		c-1.4-1.4-2.2-3.2-2.2-5.2c0-1.6,1.4-2.9,3.1-2.9s3.1,1.3,3.1,2.9c0,1.1,1,1.9,2.1,1.9c1.2,0,2.1-0.9,2.1-1.9
		c0-3.8-3.3-6.8-7.3-6.8c-2.8,0-5.5,1.6-6.6,4c-0.4,0.8-0.6,1.8-0.6,2.8c0,0.8,0.1,2,0.7,3.6c0.1,0.3,0,0.5-0.3,0.6
		c-0.3,0.1-0.5,0-0.6-0.3c-0.5-1.3-0.7-2.6-0.7-4c0-1.2,0.2-2.3,0.7-3.2c1.3-2.8,4.3-4.6,7.5-4.6c4.5,0,8.3,3.5,8.3,7.8
		c0,1.6-1.4,2.9-3.1,2.9s-3.1-1.3-3.1-2.9c0-1.1-0.9-1.9-2.1-1.9s-2.1,0.9-2.1,1.9c0,1.7,0.7,3.3,1.9,4.5c0.9,0.9,1.9,1.5,3.3,1.8
		c0.3,0.1,0.4,0.4,0.4,0.6C15.8,22.4,15.6,22.5,15.4,22.5z"/>
</g>
<g id="Capa_5" class="st0">
	<path class="st1" d="M9.9,21.5l14-18.1L1.1,5.8l3.4,6.1l14.1-5.5l-12.1,9L9.9,21.5z"/>
</g>
<g id="Capa_6">
	<path class="st2" d="M4.7,9.7L20.3,4L21,5.9L6.9,11h12.6c1.1,0,2,0.9,2,2v4c0,1.1-0.9,2-2,2h-14c-1.1,0-2-0.9-2-2v-5.5
		C3.5,10.7,4,9.9,4.7,9.7 M17.5,16h2v-2h-2V16 M5.5,16h10v-2h-10V16z"/>
</g>
</svg>
