<?xml version="1.0" encoding="utf-8"?>
<!-- Generator: Adobe Illustrator 22.1.0, SVG Export Plug-In . SVG Version: 6.00 Build 0)  -->
<svg version="1.1" xmlns="http://www.w3.org/2000/svg" xmlns:xlink="http://www.w3.org/1999/xlink" x="0px" y="0px"
	 viewBox="0 0 25 25" style="enable-background:new 0 0 25 25;" xml:space="preserve">
<style type="text/css">
	.st0{display:none;}
	.st1{display:inline;fill:#999999;}
	.st2{fill:#999999;}
</style>
<g id="Capa_1" class="st0">
	<path class="st1" d="M19.5,3.5h-14c-1.1,0-2,0.9-2,2v14c0,1.1,0.9,2,2,2h14c1.1,0,2-0.9,2-2v-14C21.5,4.4,20.6,3.5,19.5,3.5
		 M19.5,5.5v14h-14v-14H19.5 M10.5,17.5l-4-4l1.4-1.4l2.6,2.6l6.6-6.6l1.4,1.4"/>
</g>
<g id="Capa_2" class="st0">
	<path class="st1" d="M12.5,16C10.6,16,9,14.4,9,12.5S10.6,9,12.5,9s3.5,1.6,3.5,3.5S14.4,16,12.5,16 M19.9,13.5
		c0-0.3,0.1-0.6,0.1-1s0-0.7-0.1-1L22,9.9c0.2-0.1,0.2-0.4,0.1-0.6l-2-3.5c-0.1-0.2-0.4-0.3-0.6-0.2l-2.5,1c-0.5-0.4-1.1-0.7-1.7-1
		L15,2.9c0-0.2-0.3-0.4-0.5-0.4h-4c-0.3,0-0.5,0.2-0.5,0.4L9.6,5.6C9,5.8,8.5,6.2,7.9,6.6l-2.5-1C5.2,5.5,5,5.6,4.8,5.8l-2,3.5
		C2.7,9.4,2.8,9.7,3,9.9l2.1,1.6c0,0.3-0.1,0.7-0.1,1s0,0.6,0.1,1L3,15.1c-0.2,0.1-0.3,0.4-0.1,0.6l2,3.5c0.1,0.2,0.4,0.3,0.6,0.2
		l2.5-1c0.5,0.4,1.1,0.7,1.7,1l0.4,2.6c0,0.2,0.3,0.4,0.5,0.4h4c0.3,0,0.5-0.2,0.5-0.4l0.4-2.6c0.6-0.3,1.2-0.6,1.7-1l2.5,1
		c0.2,0.1,0.5,0,0.6-0.2l2-3.5c0.1-0.2,0.1-0.5-0.1-0.6L19.9,13.5z"/>
</g>
<g id="Capa_3">
	<path class="st2" d="M12.8,1.8h-8c-1.1,0-2,0.9-2,2v16c0,1.1,0.9,2,2,2h7c-0.4-0.3-0.8-0.6-1.1-0.9c-0.3-0.3-0.6-0.7-0.9-1.1h-5
		v-16h7v5h5V10c0.7,0.2,1.4,0.4,2,0.8v-3L12.8,1.8 M19.1,18.7c1.3-2.1,0.7-4.9-1.4-6.2c-2.1-1.3-4.9-0.7-6.2,1.4
		c-1.3,2.1-0.7,4.9,1.4,6.2c1.5,0.9,3.3,0.9,4.8,0l3.1,3.1l1.4-1.4L19.1,18.7 M15.3,18.8c-1.4,0-2.5-1.1-2.5-2.5s1.1-2.5,2.5-2.5
		s2.5,1.1,2.5,2.5S16.7,18.8,15.3,18.8z"/>
</g>
</svg>
