<svg xmlns="http://www.w3.org/2000/svg" viewBox="0 0 120.98 186.19"><defs><style>.cls-1{fill:#fff;}.cls-2{fill:#8d8a89;}</style></defs><title>user</title><g id="Capa_2" data-name="Capa 2"><g id="Capa_1-2" data-name="Capa 1"><rect class="cls-1" width="120.98" height="186.19"/><path class="cls-2" d="M0,129.75s16.52-1.61,24.28-6.29,12.17-9.83,17.39-9.83V102.87s-1.67-1.14-2.47-5.22S37,89.49,35,87.42s-4-7.22-4-16.72-.2-25.95,11.5-33.5,21-9.43,29.43-3c9.3.4,14.11,3.68,19.46,14s1.4,20.73,1.4,20.73,2.47.27,2,4.82-2.41,11.24-4.75,12.24c-.8,1.14-6.29,12.57-6.89,15.72s-1.34,11.57,7,17,29.1,13.91,30.83,14v53.57H0Z"/></g></g></svg>